<?xml version="1.0" encoding="UTF-8"?>
<svg width="329px" height="229px" viewBox="0 0 329 229" version="1.1" xmlns="http://www.w3.org/2000/svg" xmlns:xlink="http://www.w3.org/1999/xlink">
    <title>Group</title>
    <g id="Logo" stroke="none" stroke-width="1" fill="none" fill-rule="evenodd">
        <g transform="translate(-358, -224)" id="Group">
            <g transform="translate(358, 224)">
                <rect id="Rectangle" stroke="#979797" stroke-width="10" fill="#FFFFFF" x="34" y="34" width="290" height="190" rx="25"></rect>
                <circle id="Oval" stroke="#FFFFFF" stroke-width="10" fill="#FF0000" cx="32.5" cy="32.5" r="27.5"></circle>
                <g id="Cybertooth" transform="translate(76, 66)" fill="#FF0000" fill-rule="nonzero">
                    <g id="N">
                        <path d="M30.7955272,0 C59.943557,36.0720721 81.7412141,63.5675676 96.1884984,82.4864865 L96.5686901,82.4864865 L96.5686901,26.1081081 L82.5015974,0 L118.239617,0 L119,0.756756757 L119,125.243243 L118.239617,126 L102.271565,126 L36.8785942,43.8918919 L36.8785942,125.243243 L36.1182109,126 L14.4472843,126 C13.4968051,125.054054 8.68104366,116.855856 0,101.405405 L0.380191693,101.027027 L14.0670927,101.027027 L14.0670927,25.7297297 C14.0670927,24.9099099 9.37806177,16.4594595 0,0.378378378 L0.380191693,0 L30.7955272,0 Z" id="Path"></path>
                    </g>
                    <g id="M" transform="translate(88, 0)">
                        <path d="M31.0764331,0 L66.7006369,44.6486486 L67.0796178,44.6486486 C89.25,16.2072072 101.124735,1.32432432 102.703822,0 L118.242038,0 L119,0.756756757 L119,125.243243 L118.242038,126 L97.3980892,126 L96.6401274,125.243243 L96.6401274,43.5135135 L96.2611465,43.5135135 C95.9453291,44.5855856 86.0918259,57.0720721 66.7006369,80.972973 L37.1401274,43.8918919 L37.1401274,125.243243 L36.3821656,126 L14.4012739,126 C13.4538217,125.054054 8.65339703,116.855856 0,101.405405 L0.378980892,101.027027 L14.4012739,101.027027 L14.4012739,25.3513514 L0,0.378378378 L0.378980892,0 L31.0764331,0 Z" id="Path"></path>
                    </g>
                </g>
            </g>
        </g>
    </g>
</svg>