<?xml version="1.0" encoding="UTF-8"?>
<svg width="140px" height="72px" viewBox="0 0 140 72" version="1.1" xmlns="http://www.w3.org/2000/svg" xmlns:xlink="http://www.w3.org/1999/xlink">
    <title>Logo 1</title>
    <g id="Logo" stroke="none" stroke-width="1" fill="none" fill-rule="evenodd">
        <g transform="translate(-443, -164)" fill-rule="nonzero" id="Logo-1">
            <g transform="translate(443, 164.2988)" id="Text">
                <g id="&amp;" transform="translate(89.53, 33.0612)" fill="#C2C3C5">
                    <path d="M21.15,20.64 C19.47,18.72 17.82,16.77 16.14,14.82 L21.36,8.52 L16.26,8.52 L13.68,11.91 L6.93,4.11 L15.18,4.11 L15.18,0 L0.81,0 L0.81,2.79 L4.62,7.35 C1.8,8.01 0,9.45 0,13.11 L0,14.07 C0,18.45 1.89,20.64 6.27,20.64 L8.61,20.64 C10.47,20.64 11.73,20.37 13.5,17.94 L15.78,20.64 L21.15,20.64 Z M11.01,14.91 C10.29,16.83 9.09,16.83 8.01,16.83 L6.48,16.83 C4.65,16.83 4.02,15.99 4.02,13.74 L4.02,13.2 C4.02,11.04 4.89,10.5 6.96,10.14 L11.01,14.91 Z" id="Shape"></path>
                </g>
                <g id="UI" transform="translate(0, 17.7012)" fill="#2D79EB">
                    <path d="M100.1,0 L61.5,0 L61.5,2.4 L79.7,2.4 L79.4,27.9 C79.3,43.1 67.5,50.7 50.1,50.7 C32.6,50.7 20.8,43.1 20.7,27.7 L20.5,2.4 L38.6,2.4 L38.6,0 L0,0 L0,2.4 L18.2,2.4 L18.2,26.6 C18.2,44.1 30.9,53.1 50.1,53.1 C69.4,53.1 81.9,44.1 81.9,26.6 L81.9,2.4 L100.1,2.4 L100.1,0 Z" id="Path"></path>
                    <polygon id="Path" points="138.766667 2.4 138.766667 0 99.8666667 0 99.8666667 2.4 118.166667 2.4 118.166667 49.7 99.8666667 49.7 99.8666667 52 138.766667 52 138.766667 49.7 120.666667 49.7 120.666667 2.4"></polygon>
                </g>
                <g id="mini-notes" transform="translate(62.1133, 0)" fill="#FF0000">
                    <path d="M0,13.7011719 L1.2890625,13.7011719 L1.2890625,7.4609375 C1.2890625,5.72265625 2.36328125,4.52148438 3.85742188,4.52148438 C5.24414062,4.52148438 6.18164062,5.47851562 6.18164062,6.93359375 L6.18164062,13.7011719 L7.48046875,13.7011719 L7.48046875,7.3046875 C7.48046875,5.67382812 8.515625,4.52148438 10.0195312,4.52148438 C11.4941406,4.52148438 12.3730469,5.46875 12.3730469,7.05078125 L12.3730469,13.7011719 L13.6621094,13.7011719 L13.6621094,6.7578125 C13.6621094,4.69726562 12.3632812,3.36914062 10.3710938,3.36914062 C8.828125,3.36914062 7.66601562,4.2578125 7.17773438,5.51757812 L7.1484375,5.51757812 C6.76757812,4.22851562 5.69335938,3.36914062 4.20898438,3.36914062 C2.78320312,3.36914062 1.74804688,4.16992188 1.328125,5.29296875 L1.2890625,5.29296875 L1.2890625,3.54492188 L0,3.54492188 L0,13.7011719 Z" id="Path"></path>
                    <path d="M16.1820312,1.70898438 C16.6507812,1.70898438 17.0316406,1.328125 17.0316406,0.849609375 C17.0316406,0.37109375 16.6507812,0 16.1820312,0 C15.7035156,0 15.3226562,0.37109375 15.3226562,0.849609375 C15.3226562,1.328125 15.7035156,1.70898438 16.1820312,1.70898438 Z M15.5277344,13.7011719 L16.8265625,13.7011719 L16.8265625,3.54492188 L15.5277344,3.54492188 L15.5277344,13.7011719 Z" id="Shape"></path>
                    <path d="M18.7507812,13.7011719 L20.0398437,13.7011719 L20.0398437,7.68554688 C20.0398437,5.79101562 21.2214844,4.52148438 22.9890625,4.52148438 C24.7175781,4.52148438 25.6550781,5.52734375 25.6550781,7.41210938 L25.6550781,13.7011719 L26.9441406,13.7011719 L26.9441406,7.19726562 C26.9441406,4.81445312 25.6160156,3.36914062 23.3699219,3.36914062 C21.7292969,3.36914062 20.5867187,4.1796875 20.0789062,5.2734375 L20.0398437,5.2734375 L20.0398437,3.54492188 L18.7507812,3.54492188 L18.7507812,13.7011719 Z" id="Path"></path>
                    <path d="M29.4738281,1.70898438 C29.9425781,1.70898438 30.3234375,1.328125 30.3234375,0.849609375 C30.3234375,0.37109375 29.9425781,0 29.4738281,0 C28.9953125,0 28.6144531,0.37109375 28.6144531,0.849609375 C28.6144531,1.328125 28.9953125,1.70898438 29.4738281,1.70898438 Z M28.8195313,13.7011719 L30.1183594,13.7011719 L30.1183594,3.54492188 L28.8195313,3.54492188 L28.8195313,13.7011719 Z" id="Shape"></path>
                    <path d="M35.734375,13.7011719 L37.0234375,13.7011719 L37.0234375,7.68554688 C37.0234375,5.79101562 38.2050781,4.52148438 39.9726562,4.52148438 C41.7011719,4.52148438 42.6386719,5.52734375 42.6386719,7.41210938 L42.6386719,13.7011719 L43.9277344,13.7011719 L43.9277344,7.19726562 C43.9277344,4.81445312 42.5996094,3.36914062 40.3535156,3.36914062 C38.7128906,3.36914062 37.5703125,4.1796875 37.0625,5.2734375 L37.0234375,5.2734375 L37.0234375,3.54492188 L35.734375,3.54492188 L35.734375,13.7011719 Z" id="Path"></path>
                    <path d="M49.8265625,13.8867188 C52.5902344,13.8867188 54.4554687,11.8554688 54.4554687,8.62304688 L54.4554687,8.60351562 C54.4554687,5.37109375 52.5804687,3.359375 49.8265625,3.359375 C47.0628906,3.359375 45.1976562,5.38085938 45.1976562,8.60351562 L45.1976562,8.62304688 C45.1976562,11.8457031 47.053125,13.8769531 49.8265625,13.8867188 Z M49.8363281,12.734375 C47.834375,12.7246094 46.5257812,11.2011719 46.5257812,8.62304688 L46.5257812,8.60351562 C46.5257812,6.04492188 47.8441406,4.51171875 49.8265625,4.51171875 C51.8089844,4.51171875 53.1371094,6.03515625 53.1371094,8.60351562 L53.1371094,8.62304688 C53.1371094,11.1914062 51.81875,12.734375 49.8363281,12.734375 Z" id="Shape"></path>
                    <path d="M58.8015625,13.8867188 C59.1140625,13.8867188 59.4460937,13.8476562 59.6511719,13.8085938 L59.6511719,12.7539062 C59.5046875,12.7734375 59.2996094,12.8027344 59.0652344,12.8027344 C58.1179687,12.8027344 57.6394531,12.421875 57.6394531,11.2988281 L57.6394531,4.62890625 L59.6511719,4.62890625 L59.6511719,3.54492188 L57.6394531,3.54492188 L57.6394531,0.80078125 L56.3113281,0.80078125 L56.3113281,3.54492188 L54.8171875,3.54492188 L54.8171875,4.62890625 L56.3113281,4.62890625 L56.3113281,11.3183594 C56.3113281,13.0957031 57.1316406,13.8867188 58.8015625,13.8867188 Z" id="Path"></path>
                    <path d="M64.8175781,13.8867188 C67.0148438,13.8867188 68.6359375,12.6269531 68.9875,10.8886719 L69.0070313,10.7910156 L67.7277344,10.7910156 L67.7082031,10.8789062 C67.3761719,11.9824219 66.3410156,12.734375 64.846875,12.734375 C62.8449219,12.734375 61.5460938,11.3574219 61.5070313,8.93554688 L69.1339844,8.93554688 L69.1339844,8.42773438 C69.1339844,5.390625 67.425,3.359375 64.7101563,3.359375 C61.9953125,3.359375 60.1984375,5.45898438 60.1984375,8.64257812 L60.1984375,8.65234375 C60.1984375,11.8652344 61.9660156,13.8867188 64.8175781,13.8867188 Z M64.7003906,4.51171875 C66.4386719,4.51171875 67.6886719,5.69335938 67.8351563,7.91015625 L61.5265625,7.91015625 C61.6828125,5.75195312 62.971875,4.51171875 64.7003906,4.51171875 Z" id="Shape"></path>
                    <path d="M73.9488281,13.8867188 C76.1753906,13.8867188 77.7867188,12.6660156 77.7867188,10.9375 L77.7867188,10.9277344 C77.7867188,9.50195312 77.0152344,8.7109375 74.99375,8.22265625 L73.4605469,7.86132812 C72.1226563,7.5390625 71.5757813,7.02148438 71.5757813,6.2109375 L71.5757813,6.20117188 C71.5757813,5.16601562 72.49375,4.453125 73.8707031,4.453125 C75.2867188,4.453125 76.1851563,5.22460938 76.3511719,6.40625 L76.3609375,6.47460938 L77.6011719,6.47460938 L77.5914063,6.3671875 C77.4253906,4.61914062 76.0386719,3.359375 73.8707031,3.359375 C71.7515625,3.359375 70.2574219,4.56054688 70.2574219,6.25 L70.2574219,6.25976562 C70.2574219,7.66601562 71.1753906,8.50585938 73.0894531,8.96484375 L74.6226563,9.3359375 C75.9800781,9.65820312 76.4683594,10.1367188 76.4683594,11.015625 L76.4683594,11.0253906 C76.4683594,12.0898438 75.4917969,12.7929688 73.9585938,12.7929688 C72.4253906,12.7929688 71.478125,12.03125 71.2730469,10.859375 L71.2535156,10.7714844 L69.9644531,10.7714844 L69.9742188,10.859375 C70.1695313,12.65625 71.6441406,13.8867188 73.9488281,13.8867188 Z" id="Path"></path>
                </g>
            </g>
        </g>
    </g>
</svg>