<?xml version="1.0" encoding="UTF-8"?>
<svg width="744px" height="477px" viewBox="0 0 744 477" version="1.1" xmlns="http://www.w3.org/2000/svg" xmlns:xlink="http://www.w3.org/1999/xlink">
    <title>National Park Sign</title>
    <g id="Page-1" stroke="none" stroke-width="1" fill="none" fill-rule="evenodd">
        <g id="Logo" transform="translate(-117, -76)">
            <g id="National-Park-Sign" transform="translate(123.1325, 76.6553)">
                <path d="M659.341359,25.4074014 C676.449577,23.1317781 692.86054,28.0060632 705.563354,37.7263086 C718.266168,47.446554 727.260834,62.0127596 729.536457,79.1209773 C730.70641,87.9167229 729.990071,96.8607707 727.43509,105.358182 L631.524069,424.34117 C627.552449,437.550073 619.485743,448.675962 608.963674,456.499625 C598.441605,464.323289 585.464173,468.844727 571.671099,468.844727 L139.815057,468.844727 C126.199694,468.844727 113.367838,464.437062 102.909646,456.785193 C92.4514544,449.133323 84.3669268,438.237248 80.2462208,425.260427 L4.44834491,186.559702 C-0.775081397,170.110222 1.16346276,153.100801 8.5202335,138.897893 C15.8770042,124.694986 28.6520016,113.298592 45.1014816,108.075165 C48.2913637,107.062239 51.5569813,106.307323 54.866784,105.817469 L55.7818515,105.688943 Z" id="Top-Rectangle" stroke="#47300C" stroke-width="3" fill="#EDCA9D"></path>
                <path d="M658.748025,20.9466892 C677.088034,18.507221 694.680586,23.7324546 708.298003,34.1525576 C721.91542,44.5726607 731.557701,60.1876331 733.997169,78.5276425 C735.251359,87.9566818 734.483443,97.544701 731.744504,106.653926 L635.833483,425.636914 C631.575906,439.796858 622.928397,451.723811 611.648739,460.110778 C600.369081,468.497745 586.457274,473.344727 571.671099,473.344727 L139.815057,473.344727 C125.219388,473.344727 111.463638,468.61971 100.252457,460.416906 C89.0412749,452.214102 80.3746614,440.53351 75.9572646,426.622357 L0.159388674,187.921632 C-5.44012433,170.28779 -3.36200499,152.05369 4.52445324,136.828174 C12.4109115,121.602657 26.1057086,109.385722 43.7395512,103.786209 C47.1644824,102.698644 50.6708576,101.888538 54.224695,101.363483 L55.1722238,101.230398 Z" id="Top-Rectangle" stroke="#FFFFFF" stroke-width="6"></path>
                <path d="M686.399,247.043592 L632.96054,424.773085 C624.826662,451.824917 599.919313,470.344727 571.671099,470.344727 L139.815057,470.344727 C111.930794,470.344727 87.2557746,452.290934 78.8165687,425.714403 L22.081,247.043592 L686.399,247.043592 Z" id="Path" fill="#47300C"></path>
                <path d="M183.024191,11.7773804 L149.887657,179.801443 C141.457426,170.079164 127.98969,162.082022 112.244738,158.459373 C98.4126552,155.276843 85.3484734,156.047022 75.3136786,159.968256 C65.871758,163.657817 59.1017597,170.166287 57.4977071,178.887406 L54.3402584,196.054228 L33.0101897,62.6298585 C52.1440313,69.4546604 89.3134305,63.2016485 128.374482,45.3967181 C146.601544,37.088402 162.821703,27.3441958 175.842428,17.3323353 L183.024191,11.7773804 Z" id="Badge-1-BG" stroke="#FFFFFF" stroke-width="6"></path>
                <path d="M177.04,21.448 L147.417254,171.654712 C138.647449,163.903516 126.703796,157.681648 113.141637,154.561223 C98.4173585,151.173414 84.5270848,152.073443 73.8578279,156.242602 C64.6333578,159.847191 57.8153275,165.886983 54.8173155,173.699713 L37.9356068,68.1008348 C58.7510926,72.2206935 93.5797272,65.652924 130.033547,49.0364302 C147.755829,40.9582044 163.608073,31.5392228 176.543908,21.8230048 L177.04,21.448 Z" id="Badge-1" stroke="#47300C" stroke-width="2" fill="#EB5D29"></path>
                <g id="Cocktail-Glasses" transform="translate(70.8675, 66.3447)">
                    <g id="Cocktail-Glass-4" transform="translate(37, 39) scale(-1, 1) translate(-37, -39)translate(6, 0)">
                        <path d="M13,23 L34.304764,51.4623845 L35.8779505,56 L39.1182714,56 L40.7632412,51.460636 L40.695236,51.460636 L62,23 L13,23 Z M17.1606577,25.0282637 L37.5017631,51.2807899 L57.8390904,25.0282637 L17.1606577,25.0282637 L17.1606577,25.0282637 Z" id="Fill-6" fill="#65D5F2"></path>
                        <path d="M22,29.6487826 L36.3904302,48 L49.9698995,30.6821816 C50.8707482,25.1168343 31.3227252,29.9945357 22,29.6487826 Z M40.6518534,33.3468697 C41.2195013,33.3468697 41.6785451,33.8002334 41.6785451,34.3563821 C41.6785451,34.914461 41.2195013,35.3658945 40.6518534,35.3658945 C40.0802651,35.3658945 39.6214676,34.914461 39.6214676,34.3563821 C39.6214676,33.8002334 40.0802651,33.3468697 40.6518534,33.3468697 Z M42.7399606,32.4201161 C43.0167659,32.4201161 43.2448102,32.6416104 43.2448102,32.9166688 C43.2448102,33.1895556 43.0167659,33.4103261 42.7399606,33.4103261 C42.4602,33.4103261 42.2360961,33.1895556 42.2360961,32.9166688 C42.2360961,32.6416104 42.4602,32.4201161 42.7399606,32.4201161 Z M41.8568432,30.4459692 C42.1336485,30.4459692 42.3616928,30.6677048 42.3616928,30.9405917 C42.3616928,31.2127547 42.1336485,31.4344903 41.8568432,31.4344903 C41.5770826,31.4344903 41.3529787,31.2127547 41.3529787,30.9405917 C41.3529787,30.6677048 41.5770826,30.4459692 41.8568432,30.4459692 L41.8568432,30.4459692 Z" id="Fill-7" fill="#EDCA9D"></path>
                        <path d="M16.3478038,6.31654529 C28.7855347,4.77283025 35,4 35,4 C27.2535418,12.7163482 17.2429121,19.2764076 6,23 C11.5640032,12.9211069 14.348142,7.88093074 14.348142,7.88093074 C15.6820042,6.83743968 16.3478038,6.31654529 16.3478038,6.31654529" id="Fill-8" fill="#47300C"></path>
                        <path d="M16.0280899,6.73458243 C29.235276,5.01911894 35.8368844,4.1613872 35.8368844,4.1613872 C35.8368844,4.1613872 35.8547467,4.2746772 35.8974177,4.5022488 C35.8974177,4.5022488 29.4610356,5.32700993 16.5857906,6.97826749 C16.5857906,6.97826749 20.9848781,8.20065918 29.785286,10.6417241 C29.785286,10.6417241 29.7721374,10.9099512 29.7503057,11.44467 C29.7503057,11.44467 25.4896509,10.2592154 16.9705743,7.8870665 C16.9705743,7.8870665 19.3569279,11.3048548 24.1301314,18.1434062 C24.1159904,18.1282844 24.066621,18.1508432 23.9817751,18.2103391 L26.6827037,22.3718254 L24.9212825,22.3718254 L22.8661256,19.2041675 L22.7319103,19.3308441 C22.7319103,19.3308441 20.295691,15.7382868 15.4344165,8.55019726 C15.4344165,8.55019726 15.0600524,12.8418308 14.3150457,21.4241062 C14.3822774,21.6112702 14.2981757,21.8180183 14.1212893,21.9060225 C13.944403,21.9957621 13.7298073,21.9380016 13.6164313,21.7736443 C13.6164313,21.7736443 13.9907953,17.2950947 14.7358021,8.34047441 C14.7358021,8.34047441 11.8125871,13.8064071 5.9691341,24.7390163 C5.99766416,24.8976719 5.91629146,25.052609 5.77537776,25.1254914 C5.63074275,25.1991175 5.46154707,25.1725922 5.34817109,25.0612854 C5.23181805,24.9507223 5.20353607,24.7776886 5.2705197,24.6351465 C5.2705197,24.6351465 8.38079268,18.9584993 14.5978654,7.60644444 C13.8384696,6.29530479 12.9101262,5.31858135 11.8021674,4.67602624 L0,1.60604072 L0.278875159,0 L12.3950965,3.17499569 C13.972933,3.69930281 15.1838481,4.88674069 16.0280899,6.73458243 Z M29.1075109,26.1096518 L39,41.359676 L37.6660335,42 L27.3500591,26.1096518 L29.1075109,26.1096518 L29.1075109,26.1096518 Z" id="Fill-9" fill="#65D5F2"></path>
                        <polyline id="Fill-10" fill="#65D5F2" points="28.81026 26 39 41.3552574 37.6259503 42 27 26 28.81026 26"></polyline>
                        <path d="M39.0856534,52 L35.9108918,52 L35.9108918,72.7989631 C30.682221,73.0850979 25.5093214,74.7821562 21,77.8933475 C31.9987661,78.0355508 42.9975322,78.0355508 54,77.8933475 C49.4872238,74.7821562 44.317779,73.0850979 39.0856534,72.7989631 L39.0856534,52" id="Fill-11" fill="#65D5F2"></path>
                    </g>
                </g>
                <text id="Tipsy-Trails" font-family="NationalForestRegular, National Forest" font-size="105" font-weight="normal" letter-spacing="2.86363636" fill="#47300C">
                    <tspan x="173.867546" y="199.344727">Tipsy Trails</tspan>
                </text>
                <text id="BARHOP-TO-BLACKOUT-B" font-family="NationalPark-Heavy, National Park" font-size="65" font-weight="800" letter-spacing="1.08333333" fill="#EDCA9D">
                    <tspan x="189.322546" y="337.344727">BARHOP TO</tspan>
                    <tspan x="96.101713" y="415.344727">BLACKOUT BEACH</tspan>
                </text>
            </g>
        </g>
    </g>
</svg>