<?xml version="1.0" encoding="UTF-8"?>
<svg width="744px" height="477px" viewBox="0 0 744 477" version="1.1" xmlns="http://www.w3.org/2000/svg" xmlns:xlink="http://www.w3.org/1999/xlink">
    <title>National Park Sign</title>
    <g id="Page-1" stroke="none" stroke-width="1" fill="none" fill-rule="evenodd">
        <g id="Logo" transform="translate(-117, -76)">
            <g id="National-Park-Sign" transform="translate(123.1325, 76.6553)">
                <path d="M659.341359,25.4074014 C676.449577,23.1317781 692.86054,28.0060632 705.563354,37.7263086 C718.266168,47.446554 727.260834,62.0127596 729.536457,79.1209773 C730.70641,87.9167229 729.990071,96.8607707 727.43509,105.358182 L631.524069,424.34117 C627.552449,437.550073 619.485743,448.675962 608.963674,456.499625 C598.441605,464.323289 585.464173,468.844727 571.671099,468.844727 L139.815057,468.844727 C126.199694,468.844727 113.367838,464.437062 102.909646,456.785193 C92.4514544,449.133323 84.3669268,438.237248 80.2462208,425.260427 L4.44834491,186.559702 C-0.775081397,170.110222 1.16346276,153.100801 8.5202335,138.897893 C15.8770042,124.694986 28.6520016,113.298592 45.1014816,108.075165 C48.2913637,107.062239 51.5569813,106.307323 54.866784,105.817469 L55.7818515,105.688943 Z" id="Top-Rectangle" stroke="#47300C" stroke-width="3" fill="#EDCA9D"></path>
                <path d="M658.748025,20.9466892 C677.088034,18.507221 694.680586,23.7324546 708.298003,34.1525576 C721.91542,44.5726607 731.557701,60.1876331 733.997169,78.5276425 C735.251359,87.9566818 734.483443,97.544701 731.744504,106.653926 L635.833483,425.636914 C631.575906,439.796858 622.928397,451.723811 611.648739,460.110778 C600.369081,468.497745 586.457274,473.344727 571.671099,473.344727 L139.815057,473.344727 C125.219388,473.344727 111.463638,468.61971 100.252457,460.416906 C89.0412749,452.214102 80.3746614,440.53351 75.9572646,426.622357 L0.159388674,187.921632 C-5.44012433,170.28779 -3.36200499,152.05369 4.52445324,136.828174 C12.4109115,121.602657 26.1057086,109.385722 43.7395512,103.786209 C47.1644824,102.698644 50.6708576,101.888538 54.224695,101.363483 L55.1722238,101.230398 Z" id="Top-Rectangle" stroke="#FFFFFF" stroke-width="6"></path>
                <path d="M686.399,247.043592 L632.96054,424.773085 C624.826662,451.824917 599.919313,470.344727 571.671099,470.344727 L139.815057,470.344727 C111.930794,470.344727 87.2557746,452.290934 78.8165687,425.714403 L22.081,247.043592 L686.399,247.043592 Z" id="Path" fill="#47300C"></path>
                <path d="M183.024191,11.7773804 L149.887657,179.801443 C141.457426,170.079164 127.98969,162.082022 112.244738,158.459373 C98.4126552,155.276843 85.3484734,156.047022 75.3136786,159.968256 C65.871758,163.657817 59.1017597,170.166287 57.4977071,178.887406 L54.3402584,196.054228 L33.0101897,62.6298585 C52.1440313,69.4546604 89.3134305,63.2016485 128.374482,45.3967181 C146.601544,37.088402 162.821703,27.3441958 175.842428,17.3323353 L183.024191,11.7773804 Z" id="Badge-1-BG" stroke="#FFFFFF" stroke-width="6"></path>
                <path d="M177.04,21.448 L147.417254,171.654712 C138.647449,163.903516 126.703796,157.681648 113.141637,154.561223 C98.4173585,151.173414 84.5270848,152.073443 73.8578279,156.242602 C64.6333578,159.847191 57.8153275,165.886983 54.8173155,173.699713 L37.9356068,68.1008348 C58.7510926,72.2206935 93.5797272,65.652924 130.033547,49.0364302 C147.755829,40.9582044 163.608073,31.5392228 176.543908,21.8230048 L177.04,21.448 Z" id="Badge-1" stroke="#47300C" stroke-width="2" fill="#EB5D29"></path>
                <g id="Cocktail-Glasses" transform="translate(70.8675, 66.3447)">
                    <g id="Cocktail-Glass-4" transform="translate(37, 39) scale(-1, 1) translate(-37, -39)translate(6, 0)">
                        <path d="M13,23 L34.304764,51.4623845 L35.8779505,56 L39.1182714,56 L40.7632412,51.460636 L40.695236,51.460636 L62,23 L13,23 Z M17.1606577,25.0282637 L37.5017631,51.2807899 L57.8390904,25.0282637 L17.1606577,25.0282637 L17.1606577,25.0282637 Z" id="Fill-6" fill="#65D5F2"></path>
                        <path d="M22,29.6487826 L36.3904302,48 L49.9698995,30.6821816 C50.8707482,25.1168343 31.3227252,29.9945357 22,29.6487826 Z M40.6518534,33.3468697 C41.2195013,33.3468697 41.6785451,33.8002334 41.6785451,34.3563821 C41.6785451,34.914461 41.2195013,35.3658945 40.6518534,35.3658945 C40.0802651,35.3658945 39.6214676,34.914461 39.6214676,34.3563821 C39.6214676,33.8002334 40.0802651,33.3468697 40.6518534,33.3468697 Z M42.7399606,32.4201161 C43.0167659,32.4201161 43.2448102,32.6416104 43.2448102,32.9166688 C43.2448102,33.1895556 43.0167659,33.4103261 42.7399606,33.4103261 C42.4602,33.4103261 42.2360961,33.1895556 42.2360961,32.9166688 C42.2360961,32.6416104 42.4602,32.4201161 42.7399606,32.4201161 Z M41.8568432,30.4459692 C42.1336485,30.4459692 42.3616928,30.6677048 42.3616928,30.9405917 C42.3616928,31.2127547 42.1336485,31.4344903 41.8568432,31.4344903 C41.5770826,31.4344903 41.3529787,31.2127547 41.3529787,30.9405917 C41.3529787,30.6677048 41.5770826,30.4459692 41.8568432,30.4459692 L41.8568432,30.4459692 Z" id="Fill-7" fill="#EDCA9D"></path>
                        <path d="M16.3478038,6.31654529 C28.7855347,4.77283025 35,4 35,4 C27.2535418,12.7163482 17.2429121,19.2764076 6,23 C11.5640032,12.9211069 14.348142,7.88093074 14.348142,7.88093074 C15.6820042,6.83743968 16.3478038,6.31654529 16.3478038,6.31654529" id="Fill-8" fill="#47300C"></path>
                        <path d="M16.0280899,6.73458243 C29.235276,5.01911894 35.8368844,4.1613872 35.8368844,4.1613872 C35.8368844,4.1613872 35.8547467,4.2746772 35.8974177,4.5022488 C35.8974177,4.5022488 29.4610356,5.32700993 16.5857906,6.97826749 C16.5857906,6.97826749 20.9848781,8.20065918 29.785286,10.6417241 C29.785286,10.6417241 29.7721374,10.9099512 29.7503057,11.44467 C29.7503057,11.44467 25.4896509,10.2592154 16.9705743,7.8870665 C16.9705743,7.8870665 19.3569279,11.3048548 24.1301314,18.1434062 C24.1159904,18.1282844 24.066621,18.1508432 23.9817751,18.2103391 L26.6827037,22.3718254 L24.9212825,22.3718254 L22.8661256,19.2041675 L22.7319103,19.3308441 C22.7319103,19.3308441 20.295691,15.7382868 15.4344165,8.55019726 C15.4344165,8.55019726 15.0600524,12.8418308 14.3150457,21.4241062 C14.3822774,21.6112702 14.2981757,21.8180183 14.1212893,21.9060225 C13.944403,21.9957621 13.7298073,21.9380016 13.6164313,21.7736443 C13.6164313,21.7736443 13.9907953,17.2950947 14.7358021,8.34047441 C14.7358021,8.34047441 11.8125871,13.8064071 5.9691341,24.7390163 C5.99766416,24.8976719 5.91629146,25.052609 5.77537776,25.1254914 C5.63074275,25.1991175 5.46154707,25.1725922 5.34817109,25.0612854 C5.23181805,24.9507223 5.20353607,24.7776886 5.2705197,24.6351465 C5.2705197,24.6351465 8.38079268,18.9584993 14.5978654,7.60644444 C13.8384696,6.29530479 12.9101262,5.31858135 11.8021674,4.67602624 L0,1.60604072 L0.278875159,0 L12.3950965,3.17499569 C13.972933,3.69930281 15.1838481,4.88674069 16.0280899,6.73458243 Z M29.1075109,26.1096518 L39,41.359676 L37.6660335,42 L27.3500591,26.1096518 L29.1075109,26.1096518 L29.1075109,26.1096518 Z" id="Fill-9" fill="#65D5F2"></path>
                        <polyline id="Fill-10" fill="#65D5F2" points="28.81026 26 39 41.3552574 37.6259503 42 27 26 28.81026 26"></polyline>
                        <path d="M39.0856534,52 L35.9108918,52 L35.9108918,72.7989631 C30.682221,73.0850979 25.5093214,74.7821562 21,77.8933475 C31.9987661,78.0355508 42.9975322,78.0355508 54,77.8933475 C49.4872238,74.7821562 44.317779,73.0850979 39.0856534,72.7989631 L39.0856534,52" id="Fill-11" fill="#65D5F2"></path>
                    </g>
                </g>
                <g id="Tipsy-Trails" transform="translate(174.3655, 117.4967)" fill="#47300C" fill-rule="nonzero">
                    <path d="M51.5548924,0.697725994 C49.1909136,0.230566036 46.6871115,-0.185651234 44.3285513,0.0864073297 C31.0258847,1.62120561 17.7459786,3.35652383 4.46282174,5.06474611 C2.4142563,5.32921678 0.598730099,6.04784097 0.0231799432,8.65244531 C-0.0212595251,8.85188218 -0.000665195302,9.07299806 0.0752073023,9.2626793 C2.20181298,14.5586008 7.47280305,15.8961299 12.3395008,17.8373898 C13.045117,18.119204 13.8103484,18.2091676 14.5582379,18.0736815 C16.2263545,17.7701899 19.5246533,17.1838011 23.0689961,16.6158388 C22.7091416,22.0700085 21.977511,33.612427 21.4951769,44.3939512 C21.5948961,47.1752303 21.4236398,49.6866187 21.2317909,55.231835 C21.1949377,56.2864669 21.113645,57.4256423 21.0431927,58.5669853 C21.0182629,60.6545717 21.000921,62.7464935 20.9879145,64.8069808 C21.0291032,67.4419351 21.0800459,69.9652467 21.6447557,72.577439 C22.1314253,74.827609 23.4635359,77.0073267 24.8292457,78.7448127 C27.9053455,82.658764 31.585176,81.7179424 35.197805,79.8948267 C38.6034093,78.1746827 39.8618135,75.0649822 39.3111932,70.6621919 C39.0055338,68.222339 38.9264105,65.7250418 38.9058162,63.2526712 C38.8700477,58.9604389 38.5719763,54.6465292 38.6879527,50.2599979 C38.6738616,49.9792684 38.0094325,36.6776849 38.3313507,23.7597994 C38.248975,23.7597994 38.3855458,20.2089517 38.5242844,18.5072343 C38.5838996,17.2986897 38.6597721,16.1215765 38.7432325,14.9661423 C45.3680106,14.8620876 51.7749252,15.8267558 58.1027149,16.2451392 C58.4278838,16.2668182 58.7432972,16.1248273 58.9524897,15.8744461 C59.2429749,15.5286828 59.4976899,15.2381976 59.7188058,14.9618036 C60.255335,14.2941237 60.6888942,13.0422227 60.7008176,12.1848599 C60.7723546,7.11005433 56.6004343,1.69598863 51.554894,0.697719586 L51.5548924,0.697725994 Z" id="Path"></path>
                    <path d="M60.4228718,29.1222895 C61.3720711,28.7915402 63.1276712,28.3452902 64.7341715,27.5850896 C66.874072,26.5728896 67.9009719,24.6671403 67.8610714,22.33719 C67.8232713,20.14689 66.5622219,18.4206897 64.6123711,17.7780902 L58.3480707,16.9769397 C54.115521,17.3843402 52.0375717,19.97469 52.3546721,23.7609898 C52.6623214,27.4338893 55.3902209,29.4698393 60.4228702,29.1222895 L60.4228718,29.1222895 Z M79.1370197,51.4505389 L77.3394202,49.2885893 C76.4101696,48.1703399 74.3784189,47.9865899 73.7683692,49.3053896 C72.5199193,52.0049403 71.4856686,54.3600896 69.742668,58.8183903 C68.835468,61.1378399 66.408918,67.21314 64.3866186,68.8962898 C63.4510682,69.6732892 62.0755675,69.57564 61.3374177,68.6075398 C59.951418,66.7899901 59.7897187,63.8205902 60.0532681,61.8864904 C60.5163185,58.4960411 63.9739677,43.0820408 64.4947684,39.6978912 C64.7005691,38.365441 64.7667196,37.0109416 64.8318191,35.7278415 C64.8790688,34.8090915 64.309969,33.9659416 63.4416186,33.6635411 C56.4381189,31.2275414 53.2629183,33.3044413 50.8993689,40.0517407 C48.8676182,45.8550912 46.4610184,63.6095408 46.9188185,67.3244413 C47.2684687,70.1730918 48.3898679,72.8694911 50.1486179,75.1364407 C50.8101182,75.9890402 51.352968,76.6620905 51.4401182,76.7733903 C56.4496689,83.1290402 61.2103686,83.3432395 67.6888682,78.3714888 C69.1147684,77.277389 72.0348182,73.2443386 73.8576182,70.8639888 C74.8141683,69.6165883 75.6037687,68.247389 76.2348182,66.8078383 C78.6015175,61.4024387 79.244117,61.2858887 80.2930675,56.0463893 C80.6175171,54.4178399 80.1996176,52.7252404 79.1370181,51.4505405 L79.1370197,51.4505389 Z" id="Shape"></path>
                    <path d="M119.957001,60.1318772 C118.714856,61.5734595 115.406803,64.8544147 113.84599,66.1951946 C112.516049,67.3376224 109.781377,68.4811348 106.872198,69.4891595 C107.221212,68.5559242 107.498689,67.6085979 107.676449,66.6330909 C107.841202,65.7280379 107.98536,64.8186478 108.116511,63.9081746 C108.203224,63.309864 108.287767,62.3267691 108.320283,61.7230383 C108.374478,60.704175 108.43626,59.6853116 108.450351,58.6653652 C108.459022,58.0616344 108.415667,57.4600713 108.351716,56.859593 C108.219481,55.6055242 108.097001,54.3492877 107.89648,53.104973 C107.623338,51.4065064 107.294917,49.7145429 106.940482,48.0290827 C106.848351,47.5879373 106.699857,47.161966 106.547027,46.7359947 C106.084203,45.4526606 105.858751,44.0566009 105.240931,42.8458885 C104.473532,41.3425233 103.941338,39.7166767 102.752303,38.4051621 C102.143152,37.7331467 101.712846,36.907217 101.016983,36.2893967 C100.333045,35.6845812 99.641518,35.0841013 98.938068,34.4998818 C97.5929526,33.3813007 96.9209372,33.1591018 95.7167265,32.5662097 C95.6256782,32.5694621 95.5378823,32.5792162 95.4446679,32.5792162 C94.5775511,32.5792162 93.818823,32.4198833 93.1674003,32.1391459 C92.0466516,32.2984866 90.9443278,32.7461353 89.9146257,33.2046243 C89.7563775,33.2750767 89.5937922,33.3292718 89.4322916,33.385633 C89.4290392,32.5000897 89.1743241,32.1521586 87.266665,32.1922626 C84.3379763,32.1575771 81.4092861,32.1445707 78.4795127,32.1391459 C77.3338342,32.1369828 76.3789215,32.895711 76.2846224,33.8853091 C75.5204757,41.8660429 73.8621131,62.9532588 72.8562561,71.1442681 C71.4688674,82.435224 69.9785085,96.4651857 70.1508479,98.9906651 C70.5724837,105.176465 73.0589438,107.662926 80.4641274,107.295485 C81.3800208,107.249961 82.1571755,106.684166 82.3631156,105.909181 C82.6514314,104.824201 82.9603432,103.677437 83.128347,102.516583 C83.3169452,101.214822 85.0815303,84.7298335 85.0706916,82.5988924 C85.0685239,82.0732018 85.1021247,81.2255947 85.1617399,80.1709628 C85.9334745,80.6034374 86.8201026,80.8700758 87.7143169,81.0640941 C88.5391619,81.2429382 89.3596715,81.28521 90.1921044,81.2895455 C92.6720613,81.6895023 95.3351962,81.7577885 97.9918279,81.7556207 C111.705293,81.7458651 121.973049,76.8368956 123.015757,69.890201 C123.41138,67.2509112 123.572881,60.8689264 119.957001,60.1318756 L119.957001,60.1318772 Z M97.6438985,59.9584516 C97.6590727,61.0434319 97.2623667,62.0590428 96.9166033,63.0670675 C96.4797933,64.3428137 95.7676724,65.5307655 94.8864645,66.6417603 C94.0724581,67.6671269 93.0004843,68.3098769 91.6423609,68.5353283 C91.5393908,68.4865534 91.4472595,68.4442816 91.3529604,68.3998422 C90.2582245,66.4802612 89.3965263,64.1899872 88.9250308,62.1219121 C88.9120244,61.9788381 88.8892623,61.8390148 88.8849269,61.6937731 C88.8469906,60.3757536 88.5088152,59.065322 88.3028751,57.7505549 C88.2746945,57.5749632 88.230255,57.4015392 88.221584,57.2248644 C88.1608857,56.1030309 88.1001874,54.9822822 88.0568326,53.8593657 C88.0253996,53.0637843 87.9148416,52.2562812 88.0286504,51.4737063 C88.1858155,50.3941446 88.4524539,49.3167507 88.8058035,48.2718744 C89.0290856,47.6117808 89.2415305,46.8790671 90.0403626,46.4834441 C91.1578606,45.929573 92.2829448,46.0585575 93.3657589,46.8498034 C94.078963,47.3711585 94.5851422,47.9976513 95.0241216,48.7227787 C96.1025986,50.5036211 96.6694762,52.4199512 97.3133109,54.3221902 C97.3610012,54.4630965 97.3815956,54.6126737 97.4021899,54.7600832 C97.4943212,55.4050011 97.5853695,56.0499205 97.6709976,56.695923 C97.7056831,56.9593106 97.754458,57.2248644 97.7468701,57.488252 C97.7208557,58.313097 97.6319767,59.136859 97.6439001,59.9584532 L97.6438985,59.9584516 Z" id="Shape"></path>
                    <path d="M166.783535,44.9793884 L163.390985,40.9673377 C162.325235,39.7073377 160.333385,39.8826875 159.507036,41.3106881 C158.310036,43.3791878 156.875736,45.865587 156.613236,46.3496371 C156.258336,47.0048377 155.906585,47.6589872 155.541185,48.3078864 C154.765235,49.6833871 153.978785,51.0536374 153.198636,52.4249371 C153.115686,52.5729875 151.759087,54.9060877 151.160587,55.9235379 C150.868687,56.419138 150.577837,56.9157876 150.291187,57.4145376 C150.061237,57.8166878 149.832337,58.2177886 149.347238,58.3227886 C148.937739,58.193639 148.738239,57.9605389 148.779189,57.5415883 C148.79599,57.3725382 147.65254,51.7602886 146.88499,49.174138 C146.43559,47.6600382 145.93054,46.1784882 145.334141,44.7147879 C144.777641,43.3476875 144.453191,41.8850382 144.040542,40.4601875 C143.545991,38.7507876 143.065091,37.0392873 142.27024,35.432787 C141.691691,34.2662369 140.76769,33.4209866 139.85839,32.5284866 C139.27774,31.9604362 138.587889,31.7724869 137.917989,31.7514872 C136.164489,31.6926875 134.507589,32.2523377 133.114239,33.2729378 C132.011739,34.080388 128.088939,39.0521387 127.04944,40.4990386 C125.994189,41.970088 123.37969,45.4014872 123.200139,45.6933871 C122.431538,46.9365867 119.640638,51.350786 119.000138,52.3062866 C118.920338,52.4249371 117.405189,55.0709368 116.66599,56.2353864 C116.05279,57.2013861 115.366091,58.1201361 114.706691,59.0567359 C114.425292,59.4546852 112.372541,62.2424355 111.518891,63.1317857 C110.526641,64.1660363 109.41679,65.0910861 108.324791,66.0203367 C107.870141,66.407787 107.347241,66.7395873 106.837991,67.0314872 C105.89614,67.5732876 104.518541,67.4346868 102.674741,67.6919365 C98.1597412,68.3219365 96.5122909,81.7104859 102.372341,81.3902356 C104.614091,81.2673858 102.427991,81.3818354 102.456341,81.3755357 C103.59769,81.1140851 105.89614,81.1140851 106.99864,80.7528848 C108.544241,80.2457346 113.592641,77.7656352 114.57649,77.1188348 C115.34404,76.613785 115.60024,76.4730854 116.832941,75.5417359 C119.151341,73.7903367 121.163141,71.6304859 122.715041,69.0726859 C123.208541,69.1776859 125.074391,72.6930854 125.698092,73.6926859 C126.535991,75.0377356 127.404342,76.3575864 128.437541,77.5671868 C129.615641,78.9479362 131.960292,81.0951859 134.062392,81.2264359 C135.175393,81.2957362 136.295742,81.3975864 137.410842,81.3765867 C138.263441,81.3597863 139.132841,81.2610861 139.961291,81.0573858 C140.638541,80.8904362 141.248591,80.4662369 141.918491,80.2436374 C143.301341,79.7837369 144.49519,78.9993868 145.727891,78.2496868 C148.007442,76.8615867 149.773543,74.9442873 151.504993,72.9797366 C152.130794,72.2678367 152.574943,71.3858373 153.244844,70.7285379 C154.620345,69.3761374 155.552745,67.7076875 156.685694,66.184138 C157.351394,65.2905886 157.890044,64.3025382 158.521094,63.3806384 C158.724794,63.0824387 166.882244,49.1069381 167.179395,48.8958887 C167.605694,48.596638 166.783544,44.9793884 166.783544,44.9793884 L166.783535,44.9793884 Z M137.563095,65.7063877 C137.443395,66.6471884 136.617045,68.6169879 134.478196,68.6169879 C131.446846,68.6169879 129.016097,64.2206384 128.568798,63.2640883 C128.214948,62.5049387 128.326248,61.5399885 128.336749,60.8007892 C128.348299,59.8725896 129.951649,55.7691894 130.476649,54.4881897 C130.530199,54.3579891 130.595298,54.2319895 130.668798,54.1122895 C131.081447,53.4381897 131.503547,52.7682892 131.929847,52.1025896 C132.285797,51.5450398 132.692147,51.0336903 133.249696,50.6556897 C133.882846,50.9265899 134.441447,51.3476393 134.792147,51.84219 C135.891497,53.3940899 137.048597,58.2902404 137.259647,60.3398409 C137.368846,61.386691 137.609295,65.3420408 137.563095,65.7063909 L137.563095,65.7063877 Z" id="Shape"></path>
                    <path d="M211.835875,45.3410196 C210.854948,44.6364865 206.426145,42.6562057 205.809407,43.6945787 C205.001904,45.0570377 204.849075,46.0878244 204.431774,46.9560259 C204.075172,47.6995799 203.174453,49.8641218 202.764741,50.5794936 C201.445638,52.8838587 201.641823,52.6052985 200.228421,54.8554686 C199.341793,56.2677872 198.830193,57.0611992 197.837345,58.4063146 C197.558783,58.7845957 195.838639,61.1084705 195.570917,61.4943378 C195.335712,61.8325132 193.907136,64.1076131 193.023759,65.1990981 C192.890439,63.9688745 192.964144,62.7321477 193.148406,61.7620593 C193.779235,58.4301598 196.913865,42.2779263 197.603224,38.9546977 C197.875282,37.6453492 198.008602,36.3089047 198.137585,35.0439957 C198.229717,34.137858 197.704026,33.2750751 196.850999,32.9336472 C189.978007,30.178381 186.702471,32.0773692 184.007901,38.6360288 C182.281252,42.8382974 180.620722,54.1834468 179.997481,61.2276946 C178.552647,63.3759792 177.068793,65.2522038 176.042342,65.9968424 C173.372703,67.9337653 170.755093,68.2480956 170.838553,65.3486722 C170.893831,63.4377622 170.927432,61.5160136 171.134457,59.6181101 C171.861752,52.9564788 172.741875,46.3121895 173.407389,39.6451381 C174.021958,33.4886031 172.532684,31.8237372 166.323037,31.6492285 C164.726456,31.6037044 163.113617,32.1456538 161.383718,32.4383051 C161.383718,32.4383051 150.034231,68.0486571 161.312179,78.3651891 C161.773919,78.7922434 162.241079,79.2030406 162.717994,79.5780692 C162.754848,79.6084191 162.794952,79.6387691 162.831805,79.669119 C165.852625,82.008168 170.298771,81.6363918 174.679883,79.7688383 C173.805178,80.4256795 172.930472,81.0955287 172.091537,81.7491191 C168.082202,84.870743 161.93217,96.7350797 161.93217,96.7350797 C160.657507,99.9412471 160.679186,104.00586 161.305679,107.3486 C162.01238,111.120562 165.201205,113.113849 169.614833,114.290961 C173.900562,115.433389 176.896454,114.221592 179.475045,111.699363 C186.486775,104.83938 189.971504,96.8803231 190.853797,88.1473644 C191.165959,85.0560904 191.085751,81.9344681 191.110681,78.8431941 C191.119352,78.8442772 191.128025,78.8421095 191.135613,78.8431925 C192.643313,79.052385 202.894811,73.3261568 203.555988,72.1197799 C204.201991,70.9426683 206.910648,68.8583344 207.688888,67.7527582 C207.78969,67.6107672 211.821787,62.1381709 211.821787,62.1381709 C219.725564,49.7633195 215.727067,48.1363899 211.835878,45.3410196 L211.835875,45.3410196 Z M179.067505,94.3114825 C178.775937,96.0186201 178.458354,97.7441843 177.746233,99.3505196 C177.102398,100.801857 176.684015,102.499239 173.935252,103.007586 C169.445751,98.8898612 176.701357,91.0218531 179.182397,89.3515671 C179.75361,91.2733173 179.325471,92.7994447 179.067503,94.3114809 L179.067505,94.3114825 Z" id="Shape"></path>
                    <path d="M301.206711,0.697725994 C298.842732,0.230566036 296.33893,-0.185651234 293.980369,0.0864073297 C280.677703,1.62120561 267.397797,3.35652383 254.11464,5.06474611 C252.066074,5.32921678 250.250548,6.04784097 249.674998,8.65244531 C249.630559,8.85188218 249.651153,9.07299806 249.727025,9.2626793 C251.853631,14.5586008 257.124621,15.8961299 261.991319,17.8373898 C262.696935,18.119204 263.462167,18.2091676 264.210056,18.0736815 C265.878173,17.7701899 269.176471,17.1838011 272.720814,16.6158388 C272.36096,22.0700085 271.629329,33.612427 271.146995,44.3939512 C271.246714,47.1752303 271.075458,49.6866187 270.883609,55.231835 C270.846756,56.2864669 270.765463,57.4256423 270.695011,58.5669853 C270.670081,60.6545717 270.652739,62.7464935 270.639733,64.8069808 C270.680921,67.4419351 270.731864,69.9652467 271.296574,72.577439 C271.783244,74.827609 273.115354,77.0073267 274.481064,78.7448127 C277.557164,82.658764 281.236994,81.7179424 284.849623,79.8948267 C288.255227,78.1746827 289.513632,75.0649822 288.963011,70.6621919 C288.657352,68.222339 288.578229,65.7250418 288.557634,63.2526712 C288.521866,58.9604389 288.223794,54.6465292 288.339771,50.2599979 C288.32568,49.9792684 287.661251,36.6776849 287.983169,23.7597994 C287.900793,23.7597994 288.037364,20.2089517 288.176103,18.5072343 C288.235718,17.2986897 288.31159,16.1215765 288.395051,14.9661423 C295.019829,14.8620876 301.426743,15.8267558 307.754533,16.2451392 C308.079702,16.2668182 308.395115,16.1248273 308.604308,15.8744461 C308.894793,15.5286828 309.149508,15.2381976 309.370624,14.9618036 C309.907153,14.2941237 310.340712,13.0422227 310.352636,12.1848599 C310.424173,7.11005433 306.252252,1.69598863 301.206712,0.697719586 L301.206711,0.697725994 Z" id="Path"></path>
                    <path d="M345.319615,62.7596346 C344.515363,63.8988099 344.501272,64.358382 343.456395,65.4466146 C342.149216,66.8079889 340.894063,68.0848197 339.692021,69.0527404 C338.633054,69.7583566 337.258672,70.3404099 335.202518,70.7067676 C333.592931,70.4574711 331.981175,69.4006715 330.967732,67.8767119 C330.555852,67.0702934 330.457217,64.2261466 330.463721,63.4327346 C330.482147,61.2627725 330.934133,59.1524241 331.378531,57.0496636 C331.81751,54.9718328 332.278167,52.8950868 332.893819,50.8627786 C333.26668,49.6303872 333.468285,48.3145371 333.961458,47.1233344 C334.623719,45.5267531 335.464823,44.0060459 336.146594,42.4170525 C336.641935,41.262703 337.137277,40.0780036 337.384406,38.8564509 C337.672721,37.4278751 337.571919,35.9830404 337.064655,34.5468767 C336.685291,33.4727351 335.993766,32.7790408 335.05186,32.358488 C333.880167,31.8360499 332.635854,31.4881188 331.309163,31.6496195 C330.729279,31.7200718 330.14289,31.7395815 329.558669,31.7731822 C328.306768,31.8458039 327.046196,31.8447209 325.805134,32.0008013 C324.441592,32.1720576 323.084553,32.4343605 321.747024,32.7508585 C320.640365,33.0120768 319.512028,33.2234371 318.495332,33.8044058 C317.125285,34.5869791 316.869487,34.5501275 315.788843,33.383853 C315.239307,32.7909609 314.446978,32.4647089 313.640558,32.5297427 C312.591346,32.6142861 311.537799,32.6500546 310.48642,32.702082 C309.549933,32.7476061 308.316459,33.7610494 308.084504,34.6888645 C307.949018,35.2297292 307.836293,35.776014 307.695386,36.314711 C307.322525,37.740036 303.532139,54.8081613 297.87528,60.2482414 C297.31057,60.7912739 297.045014,61.5716795 297.221689,62.3347431 L299.172703,70.726274 C299.439342,71.875205 300.766032,72.4095665 301.754545,71.7657317 C302.523029,71.2660557 303.301267,70.6731636 303.948353,69.9805539 C306.203943,67.4810874 307.543638,65.3577325 308.640542,63.1465833 C309.409026,61.5966109 314.462152,50.2666357 315.199203,48.7014874 C315.564476,47.9275851 316.214814,47.4690961 316.998472,47.2729116 C317.704088,47.0973199 318.447642,47.0442095 319.177105,47.0051901 C319.436157,46.991099 319.74832,47.1222513 319.964015,47.284835 C320.645786,47.7975191 320.85823,48.5258973 320.637115,49.3236448 C320.363974,50.305655 320.024714,51.2714079 319.683286,52.2328254 C319.361368,53.1378784 319.001513,54.0277573 318.656835,54.9252256 C318.394532,55.6069966 318.070446,56.2725104 317.877512,56.9748757 C317.516575,58.2874751 317.192489,59.6109131 316.891166,60.9397713 C316.754596,61.5413343 316.602851,62.5374356 316.567082,63.1530898 C316.512887,64.0895758 316.523726,65.0293159 316.520473,65.9679713 C316.51397,67.7065419 316.768687,69.4245182 317.206581,71.0915518 C317.546925,72.3878923 318.055272,73.6571369 318.642745,74.8635137 C319.113156,75.8303497 319.789507,76.7018036 320.419252,77.5830115 C321.035989,78.4457928 323.283991,80.06947 324.145688,80.626592 C326.90529,82.4074343 335.934152,82.0291533 338.434704,80.8412014 C343.429301,78.467467 347.966494,74.806063 348.237468,69.6640559 C348.341523,67.7097895 348.009851,63.0425286 345.319618,62.7596314 L345.319615,62.7596346 Z" id="Path"></path>
                    <path d="M401.066419,41.5826393 C400.08572,40.8791396 398.06447,41.1542391 397.44917,42.1937385 C396.641719,43.5555886 395.495119,45.5201393 395.078269,46.3884898 C394.72127,47.13189 394.35692,47.8710893 393.94742,48.586139 C392.628621,50.8919397 391.43057,53.2785893 390.01727,55.5276891 C389.13002,56.9399387 388.05377,58.2324885 387.06152,59.5775382 C386.78222,59.9565883 386.48717,60.3219879 386.21942,60.7073377 C385.88447,61.1882379 385.60412,61.7111374 385.24187,62.167888 C384.528921,63.0645873 383.667921,63.7449869 382.375371,63.873087 C382.093972,63.2346868 381.717023,62.6225366 381.558473,61.956837 C381.351623,61.0863877 381.383123,60.161338 381.197273,59.2835379 C380.743672,57.1257876 380.985172,55.0362882 381.584723,52.9446884 C382.005773,51.4757379 382.390073,49.9931384 382.695623,48.4958389 C382.951824,47.2379394 383.070474,45.95064 383.254224,44.67594 C383.338224,44.0963396 383.448475,43.52094 383.515675,42.9402902 C383.670025,41.5973409 383.883175,40.2533405 383.920975,38.9061903 C383.953524,37.7658903 383.718324,36.6213909 383.712024,35.477941 C383.707825,34.7513412 383.380225,34.2672911 382.916126,33.8042407 C382.707175,33.5952902 382.504526,33.3800398 382.290326,33.17844 C381.615177,32.5442407 380.760477,32.3436903 379.882677,32.2649403 C378.460978,32.1357908 377.278678,32.8298409 376.090078,33.4661406 C375.812878,33.614191 375.546178,33.7853415 375.333029,33.9113412 C374.553929,33.6897911 374.230529,33.0818418 373.787428,32.6261422 C373.108078,31.924743 370.781278,31.5005437 369.719728,31.6034432 C367.569328,31.8092439 367.000229,31.5603945 364.897079,32.188294 C364.002478,32.4539439 363.114178,32.7384946 362.227977,33.0335443 C361.326028,33.332795 360.577377,33.9417953 359.732127,34.3292455 C358.081527,35.0873457 356.892926,36.4145456 355.542626,37.5296451 C354.454826,38.4284448 353.644226,39.6642953 352.667725,40.6953961 C352.344325,41.0366461 352.024075,41.3831464 351.750025,41.7642969 C350.698975,43.2227468 349.666825,44.6990466 348.681925,46.2047462 C347.960575,47.3082956 347.304325,48.453846 346.640724,49.5930966 C346.322575,50.1380469 346.021225,50.6945472 345.769226,51.2720472 C345.340825,52.2485475 344.956525,53.2460475 344.563825,54.2382972 C344.331774,54.8262978 343.983173,55.7985973 343.802573,56.4044477 C343.528523,57.3263476 343.266023,58.2524484 343.023473,59.1827484 C342.699023,60.4248986 342.494274,61.6806993 342.447024,62.9763989 C342.399774,64.2857491 342.710575,65.5373489 342.819774,66.8151987 C342.999325,68.9120488 343.786825,70.8146483 344.641525,72.6615979 C345.325075,74.1368482 346.192374,75.5595986 347.448175,76.6946483 C348.796374,77.9147478 350.055325,79.1925976 351.756325,79.995847 C352.801074,80.4882972 353.816424,80.9597478 354.947274,81.1928479 C355.953175,81.399698 356.990575,81.5319975 357.975476,81.3681977 C360.148975,81.0069975 362.181775,80.2362978 364.035025,78.9773473 C366.314575,77.4285973 368.161525,75.5060475 369.537026,73.1246483 C369.850976,73.0196483 370.152326,72.9198986 370.537676,72.7907491 C370.814876,73.1015498 371.246426,73.3703495 371.329375,73.7231496 C371.514174,74.4949002 372.106374,74.9505998 372.504324,75.5490995 C373.056623,76.3796499 373.662473,77.1608502 374.431074,77.8255003 C376.044924,79.2230501 377.890824,80.1260507 379.984524,80.4179506 C381.492324,80.6279506 383.027424,80.6573505 384.552024,80.723501 C385.986325,80.7865016 387.219025,80.1302516 388.395025,79.437251 C389.043924,79.0561005 389.565774,78.4533999 390.120174,77.9242006 C391.098775,76.9855003 391.980774,75.9785507 392.644375,74.7710507 C393.307976,73.5656512 394.146926,72.4558004 394.809476,71.2493498 C395.455225,70.0722991 395.977075,68.8269991 396.755126,67.7202998 C396.855927,67.5785491 399.816926,62.4135989 399.816926,62.4135989 C407.723427,50.0403993 404.957727,44.3787995 401.066427,41.5826489 L401.066419,41.5826393 Z M368.608828,48.5126489 C368.427178,49.7684496 368.147878,51.0231993 367.770928,52.2359496 C367.496878,53.1137497 367.006528,53.9253993 366.593879,54.7580485 C366.01218,55.9319477 365.41473,57.0984978 364.81833,58.2639984 C364.72593,58.446699 364.60098,58.6136486 364.49178,58.787949 C363.668581,60.0972991 362.72778,61.3499484 362.05683,62.7338476 C361.39533,64.0967471 360.439829,65.2160475 359.551528,66.3941477 C358.893178,67.2698473 358.098327,68.0415979 357.445227,68.7692471 C356.959076,68.8059978 356.649327,68.8290979 356.241926,68.8595472 C355.114226,68.0573473 354.448526,66.9306977 354.202826,65.505847 C353.936127,63.9612962 353.863677,62.4041461 354.081028,60.8679955 C354.254277,59.6552452 354.382377,58.4120456 354.919977,57.2664952 C355.328427,56.3970953 355.645527,55.4856961 356.021427,54.6015963 C356.142177,54.3191461 356.315426,54.0566461 356.473975,53.7909962 C356.862475,53.1410459 357.257274,52.4921467 357.653125,51.8453463 C357.743425,51.698347 357.833725,51.5481977 357.946076,51.4169477 C359.449677,49.6644975 360.891326,47.8637481 362.731976,46.4189487 C363.481676,45.830948 364.245026,45.3741974 365.145927,45.1158967 C366.514076,44.7231961 367.600827,45.0528961 368.349478,46.1028961 C368.884978,46.852596 368.724328,47.718846 368.608828,48.5126457 L368.608828,48.5126489 Z" id="Shape"></path>
                    <path d="M408.936963,29.1222895 C409.886162,28.7915402 411.641762,28.3452902 413.248262,27.5850896 C415.388163,26.5728896 416.415063,24.6671403 416.375162,22.33719 C416.337362,20.14689 415.076313,18.4206897 413.126462,17.7780902 L406.862162,16.9769397 C402.629612,17.3843402 400.551663,19.97469 400.868763,23.7609898 C401.176412,27.4338893 403.904312,29.4698393 408.936961,29.1222895 L408.936963,29.1222895 Z M427.651111,51.4505389 L425.853511,49.2885893 C424.92426,48.1703399 422.89251,47.9865899 422.28246,49.3053896 C421.03401,52.0049403 419.99976,54.3600896 418.256759,58.8183903 C417.349559,61.1378399 414.923009,67.21314 412.900709,68.8962898 C411.965159,69.6732892 410.589658,69.57564 409.851509,68.6075398 C408.465509,66.7899901 408.30381,63.8205902 408.567359,61.8864904 C409.030409,58.4960411 412.488059,43.0820408 413.008859,39.6978912 C413.21466,38.365441 413.280811,37.0109416 413.34591,35.7278415 C413.39316,34.8090915 412.82406,33.9659416 411.955709,33.6635411 C404.95221,31.2275414 401.777009,33.3044413 399.41346,40.0517407 C397.381709,45.8550912 394.975109,63.6095408 395.432909,67.3244413 C395.78256,70.1730918 396.903959,72.8694911 398.662709,75.1364407 C399.324209,75.9890402 399.867059,76.6620905 399.954209,76.7733903 C404.96376,83.1290402 409.724459,83.3432395 416.202959,78.3714888 C417.628859,77.277389 420.548909,73.2443386 422.371709,70.8639888 C423.328259,69.6165883 424.11786,68.247389 424.748909,66.8078383 C427.115608,61.4024387 427.758208,61.2858887 428.807158,56.0463893 C429.131608,54.4178399 428.713709,52.7252404 427.651109,51.4505405 L427.651111,51.4505389 Z" id="Shape"></path>
                    <path d="M461.318603,55.4022245 C460.61949,52.8268855 458.199148,46.9185623 454.591939,47.7000525 C454.034817,49.5199158 452.32768,53.8544198 451.437801,55.7100516 C449.639617,59.4603361 447.920556,62.8691911 445.890417,64.7020625 C442.7482,67.5386214 439.116062,64.6630431 436.703308,60.1572829 C447.464238,50.8336014 453.85056,33.2246114 454.22342,26.1500153 C454.596281,19.0754192 451.139734,0.838851788 440.069894,0.843186495 C434.648241,0.845355007 431.412808,2.40941858 428.880824,6.80462091 C421.995911,18.7545841 419.545221,31.6908946 420.358144,45.2905496 C420.685481,50.7544749 421.634975,56.1826301 422.293984,61.5739337 C422.527021,64.3877306 424.034722,68.6225153 425.654065,71.6617635 C427.273409,74.7010101 430.076365,76.9067407 432.120595,78.5748574 C437.860913,83.2605449 446.210172,82.8389091 451.495253,77.8009551 C456.955926,72.5949972 463.160153,62.1819984 461.318612,55.4022229 L461.318603,55.4022245 Z M432.566076,36.2465113 C432.644116,32.4875559 432.755757,28.6798255 433.452703,24.9924086 C434.082446,21.6605091 434.344749,17.8798763 438.158983,15.8584084 C445.37015,23.1638744 436.588416,42.4962608 433.383333,46.9218131 C432.189963,42.992686 432.49779,39.5751584 432.566076,36.2465097 L432.566076,36.2465113 Z" id="Shape"></path>
                    <path d="M498.812625,44.9793884 L495.420076,40.9673377 C494.354326,39.7073377 492.362476,39.8826875 491.536127,41.3106881 C490.339127,43.3791878 488.904827,45.865587 488.642327,46.3496371 C488.287426,47.0048377 487.935676,47.6589872 487.570276,48.3078864 C486.794326,49.6833871 486.007876,51.0536374 485.227727,52.4249371 C485.144777,52.5729875 483.788177,54.9060877 483.189678,55.9235379 C482.897778,56.419138 482.606927,56.9157876 482.320278,57.4145376 C482.090328,57.8166878 481.861428,58.2177886 481.376329,58.3227886 C480.96683,58.193639 480.76733,57.9605389 480.80828,57.5415883 C480.825081,57.3725382 479.681631,51.7602886 478.914081,49.174138 C478.464681,47.6600382 477.959631,46.1784882 477.363232,44.7147879 C476.806732,43.3476875 476.482282,41.8850382 476.069633,40.4601875 C475.575082,38.7507876 475.094182,37.0392873 474.299331,35.432787 C473.720782,34.2662369 472.796781,33.4209866 471.887481,32.5284866 C471.306831,31.9604362 470.61698,31.7724869 469.94708,31.7514872 C468.19358,31.6926875 466.53668,32.2523377 465.14333,33.2729378 C464.04083,34.080388 460.11803,39.0521387 459.07853,40.4990386 C458.02328,41.970088 455.408781,45.4014872 455.22923,45.6933871 C454.460629,46.9365867 451.669729,51.350786 451.029228,52.3062866 C450.949429,52.4249371 449.43428,55.0709368 448.695081,56.2353864 C448.081881,57.2013861 447.395182,58.1201361 446.735782,59.0567359 C446.454382,59.4546852 444.401632,62.2424355 443.547982,63.1317857 C442.555732,64.1660363 441.445881,65.0910861 440.353882,66.0203367 C439.899232,66.407787 439.376332,66.7395873 438.867081,67.0314872 C437.925231,67.5732876 436.547632,67.4346868 434.703832,67.6919365 C430.188832,68.3219365 428.541382,81.7104859 434.401432,81.3902356 C436.643182,81.2673858 434.457081,81.3818354 434.485432,81.3755357 C435.626781,81.1140851 437.925231,81.1140851 439.027731,80.7528848 C440.573331,80.2457346 445.621732,77.7656352 446.605581,77.1188348 C447.373131,76.613785 447.629331,76.4730854 448.862032,75.5417359 C451.180432,73.7903367 453.192232,71.6304859 454.744132,69.0726859 C455.237632,69.1776859 457.103482,72.6930854 457.727183,73.6926859 C458.565082,75.0377356 459.433433,76.3575864 460.466632,77.5671868 C461.644732,78.9479362 463.989382,81.0951859 466.091483,81.2264359 C467.204484,81.2957362 468.324833,81.3975864 469.439933,81.3765867 C470.292532,81.3597863 471.161932,81.2610861 471.990382,81.0573858 C472.667632,80.8904362 473.277682,80.4662369 473.947582,80.2436374 C475.330432,79.7837369 476.524281,78.9993868 477.756982,78.2496868 C480.036533,76.8615867 481.802633,74.9442873 483.534084,72.9797366 C484.159885,72.2678367 484.604034,71.3858373 485.273935,70.7285379 C486.649435,69.3761374 487.581836,67.7076875 488.714785,66.184138 C489.380485,65.2905886 489.919135,64.3025382 490.550185,63.3806384 C490.753885,63.0824387 498.911335,49.1069381 499.208486,48.8958887 C499.634785,48.596638 498.812635,44.9793884 498.812635,44.9793884 L498.812625,44.9793884 Z M469.592186,65.7063877 C469.472486,66.6471884 468.646136,68.6169879 466.507287,68.6169879 C463.475937,68.6169879 461.045188,64.2206384 460.597889,63.2640883 C460.244039,62.5049387 460.355339,61.5399885 460.365839,60.8007892 C460.37739,59.8725896 461.98074,55.7691894 462.50574,54.4881897 C462.559289,54.3579891 462.624389,54.2319895 462.697889,54.1122895 C463.110538,53.4381897 463.532638,52.7682892 463.958938,52.1025896 C464.314888,51.5450398 464.721237,51.0336903 465.278787,50.6556897 C465.911937,50.9265899 466.470538,51.3476393 466.821237,51.84219 C467.920588,53.3940899 469.077688,58.2902404 469.288737,60.3398409 C469.397937,61.386691 469.638386,65.3420408 469.592186,65.7063909 L469.592186,65.7063877 Z" id="Shape"></path>
                </g>
                <g id="BARHOP-TO-BLACKOUT-B" transform="translate(97.7267, 290.8047)" fill="#EDCA9D" fill-rule="nonzero">
                    <path d="M121.105833,22.165 C122.990833,19.89 124.095833,16.965 124.095833,13.845 C124.095833,6.955 118.765833,1.43 112.070833,1.04 L111.615833,1.04 L97.6408333,1.04 C95.1058333,1.04 93.2208333,2.99 93.2208333,5.33 L93.2208333,41.99 L93.2208333,42.055 L93.2208333,42.12 C93.2208333,44.525 95.1058333,46.54 97.6408333,46.54 L111.615833,46.54 C119.220833,46.54 125.525833,40.3 125.525833,32.565 C125.525833,28.47 123.835833,24.765 121.105833,22.165 Z M101.995833,9.685 L111.355833,9.685 C113.565833,9.685 115.450833,11.505 115.450833,13.845 C115.450833,16.12 113.435833,18.265 111.355833,18.265 L101.995833,18.265 L101.995833,9.685 Z M111.615833,37.83 L101.995833,37.83 L101.995833,26.91 L111.615833,26.91 C114.410833,26.91 116.750833,29.445 116.750833,32.565 C116.750833,35.425 114.475833,37.83 111.615833,37.83 Z" id="Shape"></path>
                    <path d="M166.454167,40.69 L152.414167,3.38 C151.829167,1.82 149.944167,1.04 148.319167,1.04 C146.694167,1.04 144.874167,1.82 144.289167,3.38 L130.184167,40.495 C129.404167,42.705 130.119167,45.5 132.654167,46.345 C135.124167,47.125 137.529167,46.15 138.439167,43.745 L141.819167,34.775 L154.754167,34.775 L158.134167,43.81 C158.849167,45.695 161.254167,47.255 163.919167,46.215 C166.129167,45.37 167.234167,42.835 166.454167,40.69 Z M151.374167,25.805 L145.199167,25.805 L148.319167,17.42 L151.374167,25.805 Z" id="Shape"></path>
                    <path d="M204.1975,40.105 L197.1125,25.545 C201.3375,23.465 204.3275,19.11 204.3275,14.04 C204.3275,6.825 198.4775,1.04 191.4575,1.04 L175.4675,1.04 C172.9325,1.04 171.0475,2.925 171.0475,5.46 L171.0475,41.99 C171.0475,44.59 173.0625,46.54 175.5325,46.54 C178.1325,46.54 179.9525,44.59 179.9525,41.99 L179.9525,26.91 L187.8825,26.91 L196.2675,44.005 C197.3725,46.28 199.7775,47.19 202.1175,46.215 C204.3925,45.175 205.3025,42.51 204.1975,40.105 Z M179.9525,9.945 L191.4575,9.945 C193.6025,9.945 195.4875,11.83 195.4875,14.04 C195.4875,16.12 193.5375,18.07 191.4575,18.07 L179.9525,18.07 L179.9525,9.945 Z" id="Shape"></path>
                    <path d="M237.455833,1.04 C235.115833,1.04 233.035833,3.12 233.035833,5.46 L233.035833,18.395 L217.825833,18.395 L217.825833,5.46 C217.825833,3.12 215.810833,1.04 213.470833,1.04 C211.000833,1.04 208.985833,3.12 208.985833,5.46 L208.985833,42.12 C208.985833,44.655 210.870833,46.54 213.470833,46.54 C216.005833,46.54 217.825833,44.655 217.825833,42.12 L217.825833,27.17 L233.035833,27.17 L233.035833,42.12 C233.035833,44.655 234.920833,46.54 237.455833,46.54 C239.990833,46.54 241.875833,44.655 241.875833,42.12 L241.875833,5.46 C241.875833,3.12 239.860833,1.04 237.455833,1.04 Z" id="Path"></path>
                    <path d="M264.864167,47.645 C254.529167,47.645 246.209167,36.985 246.209167,23.855 C246.209167,10.725 254.529167,0 264.864167,0 C275.199167,0 283.584167,10.725 283.584167,23.855 C283.584167,36.92 275.264167,47.645 264.864167,47.645 Z M264.864167,9.165 C259.729167,9.165 255.309167,15.795 255.309167,23.855 C255.309167,31.915 259.729167,38.545 264.864167,38.545 C270.064167,38.545 274.419167,31.98 274.419167,23.855 C274.419167,15.73 270.064167,9.165 264.864167,9.165 Z" id="Shape"></path>
                    <path d="M306.6375,1.04 L292.3375,1.04 C289.8025,1.04 287.9175,2.925 287.9175,5.46 L287.9175,41.99 C287.9175,44.525 289.8675,46.54 292.4025,46.54 C294.8725,46.54 296.8225,44.525 296.8225,41.99 L296.8225,29.12 L306.6375,29.12 C314.1775,29.12 320.6125,22.75 320.6125,15.08 C320.6125,7.41 314.1775,1.04 306.6375,1.04 Z M306.6375,20.085 L296.8225,20.085 L296.8225,9.945 L306.6375,9.945 C309.4325,9.945 311.7725,12.415 311.7725,15.08 C311.7725,17.745 309.4325,20.085 306.6375,20.085 Z" id="Shape"></path>
                    <path d="M379.719167,1.04 L353.329167,1.04 C350.664167,1.04 348.779167,2.99 348.779167,5.395 C348.779167,7.865 350.664167,9.815 353.329167,9.815 L362.429167,9.815 L362.429167,41.99 C362.429167,44.525 364.249167,46.54 366.849167,46.54 C369.254167,46.54 371.204167,44.525 371.204167,41.99 L371.204167,9.815 L379.719167,9.815 C382.384167,9.815 384.269167,7.865 384.269167,5.395 C384.269167,2.99 382.384167,1.04 379.719167,1.04 Z" id="Path"></path>
                    <path d="M407.2575,47.645 C396.9225,47.645 388.6025,36.985 388.6025,23.855 C388.6025,10.725 396.9225,0 407.2575,0 C417.5925,0 425.9775,10.725 425.9775,23.855 C425.9775,36.92 417.6575,47.645 407.2575,47.645 Z M407.2575,9.165 C402.1225,9.165 397.7025,15.795 397.7025,23.855 C397.7025,31.915 402.1225,38.545 407.2575,38.545 C412.4575,38.545 416.8125,31.98 416.8125,23.855 C416.8125,15.73 412.4575,9.165 407.2575,9.165 Z" id="Shape"></path>
                    <path d="M27.885,100.165 C29.77,97.89 30.875,94.965 30.875,91.845 C30.875,84.955 25.545,79.43 18.85,79.04 L18.395,79.04 L4.42,79.04 C1.885,79.04 0,80.99 0,83.33 L0,119.99 L0,120.055 L0,120.12 C0,122.525 1.885,124.54 4.42,124.54 L18.395,124.54 C26,124.54 32.305,118.3 32.305,110.565 C32.305,106.47 30.615,102.765 27.885,100.165 Z M8.775,87.685 L18.135,87.685 C20.345,87.685 22.23,89.505 22.23,91.845 C22.23,94.12 20.215,96.265 18.135,96.265 L8.775,96.265 L8.775,87.685 Z M18.395,115.83 L8.775,115.83 L8.775,104.91 L18.395,104.91 C21.19,104.91 23.53,107.445 23.53,110.565 C23.53,113.425 21.255,115.83 18.395,115.83 Z" id="Shape"></path>
                    <path d="M65.3683333,115.7 L45.5433333,115.7 L45.5433333,83.59 C45.5433333,81.055 43.5933333,79.04 41.1233333,79.04 C38.6533333,79.04 36.6383333,81.055 36.6383333,83.59 L36.6383333,120.12 C36.6383333,122.655 38.5233333,124.54 41.0583333,124.54 L65.3683333,124.54 C67.9033333,124.54 69.9183333,122.59 69.9183333,120.12 C69.9183333,117.65 67.9033333,115.7 65.3683333,115.7 Z" id="Path"></path>
                    <path d="M110.846667,118.69 L96.8066667,81.38 C96.2216667,79.82 94.3366667,79.04 92.7116667,79.04 C91.0866667,79.04 89.2666667,79.82 88.6816667,81.38 L74.5766667,118.495 C73.7966667,120.705 74.5116667,123.5 77.0466667,124.345 C79.5166667,125.125 81.9216667,124.15 82.8316667,121.745 L86.2116667,112.775 L99.1466667,112.775 L102.526667,121.81 C103.241667,123.695 105.646667,125.255 108.311667,124.215 C110.521667,123.37 111.626667,120.835 110.846667,118.69 Z M95.7666667,103.805 L89.5916667,103.805 L92.7116667,95.42 L95.7666667,103.805 Z" id="Shape"></path>
                    <path d="M133.445,124.54 C122.46,124.54 115.44,115.765 115.44,101.79 C115.44,87.945 122.33,79.04 133.055,79.04 C141.18,79.04 147.875,85.02 147.875,92.365 C147.875,94.965 146.055,96.72 143.52,96.72 C141.115,96.72 139.1,94.77 139.1,92.365 C139.1,90.35 136.11,87.88 133.055,87.88 C127.4,87.88 124.28,93.015 124.28,101.79 C124.28,110.37 127.855,115.765 133.445,115.765 C137.15,115.765 139.685,112.775 140.66,107.835 C140.92,105.885 142.155,104.13 145.08,104.13 C147.81,104.13 149.305,106.665 148.915,109.33 C147.745,118.3 141.57,124.54 133.445,124.54 Z" id="Path"></path>
                    <path d="M185.163333,117.39 L172.228333,98.93 L183.343333,87.49 C185.358333,85.67 185.488333,82.875 183.668333,81.185 L183.668333,81.12 C181.783333,79.365 179.118333,79.495 177.168333,81.315 L162.153333,96.785 L162.153333,83.59 C162.153333,81.055 160.203333,79.04 157.733333,79.04 C155.263333,79.04 153.313333,81.055 153.313333,83.59 L153.313333,119.99 C153.313333,122.59 155.263333,124.54 157.733333,124.54 C160.203333,124.54 162.153333,122.59 162.153333,119.99 L162.153333,109.33 L166.118333,105.17 L177.753333,122.2 C179.313333,124.475 181.913333,125.19 184.188333,123.89 C186.268333,122.525 186.723333,119.665 185.163333,117.39 Z" id="Path"></path>
                    <path d="M209.061667,125.645 C198.726667,125.645 190.406667,114.985 190.406667,101.855 C190.406667,88.725 198.726667,78 209.061667,78 C219.396667,78 227.781667,88.725 227.781667,101.855 C227.781667,114.92 219.461667,125.645 209.061667,125.645 Z M209.061667,87.165 C203.926667,87.165 199.506667,93.795 199.506667,101.855 C199.506667,109.915 203.926667,116.545 209.061667,116.545 C214.261667,116.545 218.616667,109.98 218.616667,101.855 C218.616667,93.73 214.261667,87.165 209.061667,87.165 Z" id="Shape"></path>
                    <path d="M260.975,79.04 C258.44,79.04 256.555,80.99 256.555,83.655 L256.555,109.135 C256.555,113.23 253.305,116.155 248.755,116.155 C244.27,116.155 241.02,113.23 241.02,109.135 L241.02,83.655 C241.02,80.99 239.135,79.04 236.6,79.04 C234,79.04 232.115,80.99 232.115,83.655 L232.115,109.135 C232.115,118.56 239.07,125.125 248.755,125.125 C258.765,125.125 265.395,118.755 265.395,109.135 L265.395,83.655 C265.395,80.99 263.51,79.04 260.975,79.04 Z" id="Path"></path>
                    <path d="M300.668333,79.04 L274.278333,79.04 C271.613333,79.04 269.728333,80.99 269.728333,83.395 C269.728333,85.865 271.613333,87.815 274.278333,87.815 L283.378333,87.815 L283.378333,119.99 C283.378333,122.525 285.198333,124.54 287.798333,124.54 C290.203333,124.54 292.153333,122.525 292.153333,119.99 L292.153333,87.815 L300.668333,87.815 C303.333333,87.815 305.218333,85.865 305.218333,83.395 C305.218333,80.99 303.333333,79.04 300.668333,79.04 Z" id="Path"></path>
                    <path d="M361.27,100.165 C363.155,97.89 364.26,94.965 364.26,91.845 C364.26,84.955 358.93,79.43 352.235,79.04 L351.78,79.04 L337.805,79.04 C335.27,79.04 333.385,80.99 333.385,83.33 L333.385,119.99 L333.385,120.055 L333.385,120.12 C333.385,122.525 335.27,124.54 337.805,124.54 L351.78,124.54 C359.385,124.54 365.69,118.3 365.69,110.565 C365.69,106.47 364,102.765 361.27,100.165 Z M342.16,87.685 L351.52,87.685 C353.73,87.685 355.615,89.505 355.615,91.845 C355.615,94.12 353.6,96.265 351.52,96.265 L342.16,96.265 L342.16,87.685 Z M351.78,115.83 L342.16,115.83 L342.16,104.91 L351.78,104.91 C354.575,104.91 356.915,107.445 356.915,110.565 C356.915,113.425 354.64,115.83 351.78,115.83 Z" id="Shape"></path>
                    <path d="M398.493333,115.7 L378.863333,115.7 L378.863333,105.17 L390.628333,105.17 C393.293333,105.17 395.048333,103.285 395.048333,100.75 C395.048333,98.41 393.033333,96.395 390.628333,96.395 L378.863333,96.395 L378.863333,87.815 L396.348333,87.815 C399.013333,87.815 400.898333,85.995 400.898333,83.46 C400.898333,80.86 399.078333,79.04 396.348333,79.04 L374.443333,79.04 C372.233333,79.04 370.608333,80.34 370.153333,82.29 C370.088333,82.615 370.023333,83.005 370.023333,83.395 L370.023333,120.12 C370.023333,122.395 372.038333,124.54 374.443333,124.54 L398.493333,124.54 C400.898333,124.54 402.913333,122.395 402.913333,120.12 C402.913333,117.585 401.028333,115.7 398.493333,115.7 Z" id="Path"></path>
                    <path d="M443.841667,118.69 L429.801667,81.38 C429.216667,79.82 427.331667,79.04 425.706667,79.04 C424.081667,79.04 422.261667,79.82 421.676667,81.38 L407.571667,118.495 C406.791667,120.705 407.506667,123.5 410.041667,124.345 C412.511667,125.125 414.916667,124.15 415.826667,121.745 L419.206667,112.775 L432.141667,112.775 L435.521667,121.81 C436.236667,123.695 438.641667,125.255 441.306667,124.215 C443.516667,123.37 444.621667,120.835 443.841667,118.69 Z M428.761667,103.805 L422.586667,103.805 L425.706667,95.42 L428.761667,103.805 Z" id="Shape"></path>
                    <path d="M466.44,124.54 C455.455,124.54 448.435,115.765 448.435,101.79 C448.435,87.945 455.325,79.04 466.05,79.04 C474.175,79.04 480.87,85.02 480.87,92.365 C480.87,94.965 479.05,96.72 476.515,96.72 C474.11,96.72 472.095,94.77 472.095,92.365 C472.095,90.35 469.105,87.88 466.05,87.88 C460.395,87.88 457.275,93.015 457.275,101.79 C457.275,110.37 460.85,115.765 466.44,115.765 C470.145,115.765 472.68,112.775 473.655,107.835 C473.915,105.885 475.15,104.13 478.075,104.13 C480.805,104.13 482.3,106.665 481.91,109.33 C480.74,118.3 474.565,124.54 466.44,124.54 Z" id="Path"></path>
                    <path d="M514.778333,79.04 C512.438333,79.04 510.358333,81.12 510.358333,83.46 L510.358333,96.395 L495.148333,96.395 L495.148333,83.46 C495.148333,81.12 493.133333,79.04 490.793333,79.04 C488.323333,79.04 486.308333,81.12 486.308333,83.46 L486.308333,120.12 C486.308333,122.655 488.193333,124.54 490.793333,124.54 C493.328333,124.54 495.148333,122.655 495.148333,120.12 L495.148333,105.17 L510.358333,105.17 L510.358333,120.12 C510.358333,122.655 512.243333,124.54 514.778333,124.54 C517.313333,124.54 519.198333,122.655 519.198333,120.12 L519.198333,83.46 C519.198333,81.12 517.183333,79.04 514.778333,79.04 Z" id="Path"></path>
                </g>
            </g>
        </g>
    </g>
</svg>