<?xml version="1.0" encoding="UTF-8"?>
<svg width="329px" height="331px" viewBox="0 0 329 331" version="1.1" xmlns="http://www.w3.org/2000/svg" xmlns:xlink="http://www.w3.org/1999/xlink">
    <title>Craft NW Logo Standard</title>
    <g id="Page-1" stroke="none" stroke-width="1" fill="none" fill-rule="evenodd">
        <g id="Logo" transform="translate(-26, -25)" fill-rule="nonzero">
            <g id="Craft-NW-Logo-Standard">
                <circle id="Circle" stroke="#4A4A4A" stroke-width="12" fill="#FFFFFF" cx="190.5" cy="191.5" r="158.5"></circle>
                <g id="Botton-Text" transform="translate(52.6202, 53.6202)" fill="#4A4A4A">
                    <g id="NEWBERG-OR" transform="translate(29.1809, 204.6626)">
                        <polygon id="Path" points="11.1037221 31.2239754 27.769286 17.5018764 26.1354959 15.5176294 14.3883314 25.1900146 16.5916824 3.044752 0 16.7060183 1.63379012 18.6902654 13.3387366 9.05264171"></polygon>
                        <polygon id="Path" points="24.769161 39.3000884 28.9815293 33.9683985 36.9951557 40.2996644 38.5122864 38.3793978 30.49866 32.048132 34.7110282 26.7164421 42.7246546 33.0477079 44.2417853 31.1274414 34.2113426 23.2027646 21.2352141 39.626944 32.7031748 48.6873498 34.2203054 46.7670833"></polygon>
                        <polygon id="Path" points="68.8606048 44.0104617 57.4125431 55.1500461 57.3492524 46.9141221 50.856728 52.0313552 52.3959124 36.101798 49.8818426 34.8941877 47.656446 57.6834413 54.7589698 52.0856822 54.8294238 61.1592499 71.239112 45.1529558"></polygon>
                        <path d="M85.1300744,66.9807753 C84.4119403,67.4001655 83.5841873,67.5124055 82.7728496,67.319374 L76.0959396,65.7308205 L77.6686709,59.1204136 L82.6431019,60.3039176 L84.1194704,60.6551715 C84.9973112,60.8640252 85.7529744,61.4092015 86.2395105,62.1995247 C86.7361827,63.006313 86.8927746,63.9429927 86.6744276,64.8607353 C86.4592451,65.7651773 85.9140687,66.5208405 85.1300744,66.9807753 Z M84.7822697,51.3127002 C85.6601104,51.5215538 86.4157736,52.0667302 86.9023097,52.8570534 C87.3989819,53.6638417 87.5422732,54.5973569 87.3239262,55.5150995 C87.1087437,56.4195415 86.5635673,57.1752047 85.779573,57.6351396 C85.0646034,58.0412291 84.2469865,58.1699341 83.4356488,57.9769027 L78.2351074,56.739603 L79.8078387,50.1291961 L84.7822697,51.3127002 Z M88.5231115,60.9299324 C88.188618,60.3865852 87.7819353,59.9103839 87.2998989,59.5146292 C87.8989702,59.1231259 88.4207595,58.6429683 88.851966,58.0709921 C89.3420611,57.4287056 89.6852066,56.6952432 89.8719091,55.9105067 C90.2263274,54.4208376 89.986668,52.8882014 89.1859107,51.5874611 C88.3750173,50.2702558 87.0777864,49.3432681 85.561516,48.9825208 L77.8737591,47.1534691 L73.0289871,67.5167145 L81.9803027,69.6463889 C82.1399101,69.6843623 82.3128181,69.7255002 82.47559,69.7501729 C83.8309673,69.9602129 85.2172967,69.6857446 86.4230538,68.9888707 C87.1247228,68.5796167 87.7288374,68.0487783 88.2024674,67.4166279 C88.6925625,66.7743413 89.0357079,66.0408789 89.2224105,65.2561425 C89.5768288,63.7664733 89.3238688,62.2306727 88.5231115,60.9299324 Z" id="Shape"></path>
                        <polygon id="Path" points="102.695959 69.9994129 102.943589 63.2090047 113.149695 63.5811971 113.238882 61.1355572 103.032776 60.7633648 103.280406 53.9729566 113.486512 54.3451491 113.575699 51.8995091 100.800987 51.4336458 100.038167 72.3513819 114.643693 72.8840107 114.73288 70.4383707"></polygon>
                        <path d="M135.42947,59.5940278 C134.771287,60.4782092 133.785596,61.0560181 132.692859,61.2357671 L127.822761,62.0368706 L126.367016,53.1870524 L131.021265,52.4214548 C132.194945,52.2283911 133.392332,52.5163741 134.382043,53.2264756 C135.387464,53.9478486 136.046041,55.0033878 136.245762,56.2175397 C136.445483,57.4316916 136.1575,58.6290787 135.42947,59.5940278 Z M138.630362,58.4162855 C138.866074,57.4907531 138.901823,56.5288356 138.746484,55.5844953 C138.451341,53.7902486 137.485931,52.2171018 136.009219,51.1575852 C134.516798,50.0867971 132.6881,49.6671158 130.853382,49.9689165 L123.447055,51.1872152 L126.842314,71.8277974 L129.378542,71.4106023 L128.233475,64.4494647 L131.053005,63.985668 L139.15921,69.8017379 L142.801666,69.2025746 L134.475525,63.2287043 C135.629585,62.7479003 136.638171,61.9723468 137.411287,60.9445589 C137.979298,60.1860551 138.392431,59.3283273 138.630362,58.4162855 Z" id="Shape"></path>
                        <path d="M154.76825,42.4231956 C152.036574,43.4711192 149.890044,45.5099688 148.694108,48.194544 C147.513908,50.8437959 147.428897,53.7904366 148.457234,56.4710529 C149.475776,59.1261396 151.464612,61.2186393 154.060879,62.3752353 C156.674807,63.5396993 159.586125,63.6089739 162.266741,62.5806376 L169.0704,59.9706221 L164.780769,48.7886227 L158.104758,51.3496697 L158.981292,53.634576 L163.257513,51.9941348 L165.794076,58.6063217 L161.594444,60.2173819 C159.52654,61.0106699 157.265019,60.9557014 155.216264,60.0430134 C153.149847,59.1224574 151.591549,57.465173 150.783571,55.3589745 C149.990283,53.2910705 150.037383,51.0472109 150.926467,49.0514411 C151.807683,47.0733331 153.410937,45.5650488 155.440547,44.7864513 C157.18933,44.1155842 159.001606,43.8010873 160.851847,43.852754 L159.882273,41.3253157 C158.141853,41.4072397 156.427679,41.7866064 154.76825,42.4231956 Z" id="Path"></path>
                        <path d="M200.614352,36.4527178 C198.887082,37.9667099 196.657561,38.7210247 194.342374,38.568683 C192.007893,38.4150718 189.868132,37.3635655 188.327105,35.605451 C186.813113,33.8781807 186.06654,31.6782347 186.216343,29.4016337 C186.363606,27.1636192 187.38046,25.1087736 189.076886,23.6218171 C190.804157,22.1078251 193.033677,21.3535103 195.348865,21.5058519 C197.683345,21.6594631 199.823106,22.7109694 201.364134,24.4690839 C202.878126,26.1963542 203.624698,28.3963002 203.474896,30.6729012 C203.327632,32.9109157 202.310778,34.9657614 200.614352,36.4527178 Z M202.745352,37.7846107 C204.595748,35.8718085 205.69968,33.3770271 205.876143,30.6952683 C206.072917,27.7048179 205.108415,24.8414103 203.152842,22.6103528 C201.224304,20.4101393 198.549286,19.1005797 195.636008,18.9088832 C192.703438,18.715917 189.859323,19.6816889 187.628266,21.6372619 C185.366364,23.6198706 184.01314,26.3695229 183.815096,29.3792666 C183.618321,32.369717 184.593105,35.2241128 186.548678,37.4551703 C188.477215,39.6553837 191.141952,40.9739552 194.05523,41.1656518 C196.987801,41.3586179 199.831915,40.392846 202.062973,38.437273 C202.299444,38.2300003 202.526904,38.0124462 202.745352,37.7846107 Z" id="Shape"></path>
                        <path d="M215.583963,6.49771049 C215.736061,7.58942813 215.439842,8.69292485 214.787923,9.58812548 L211.882454,13.5778468 L204.632434,8.29810364 L207.409128,4.48521207 C208.109338,3.52370028 209.16417,2.88808955 210.367485,2.6988709 C211.589901,2.50664877 212.799951,2.79589836 213.794618,3.52025337 C214.789286,4.24460837 215.424897,5.29943974 215.583963,6.49771049 Z M217.036381,3.4117306 C216.554417,2.58718164 215.904516,1.87711676 215.130886,1.31372953 C213.660988,0.243293802 211.869038,-0.199109978 210.073615,0.0832162641 C208.259091,0.368545977 206.662249,1.35361592 205.567668,2.85666883 L201.149103,8.92413976 L218.058448,21.2381749 L219.571545,19.1604253 L213.868785,15.0074566 L215.550899,12.6976179 L225.406627,11.147827 L227.579692,8.16382495 L217.45656,9.75566439 C217.940778,8.60303272 218.114464,7.34265112 217.943383,6.06797938 C217.815314,5.12906373 217.507293,4.22823117 217.036381,3.4117306 Z" id="Shape"></path>
                    </g>
                    <circle id="Dot" cx="205.379845" cy="249.379845" r="4"></circle>
                </g>
                <path d="M72.4834099,47.9137711 L99.4379335,92.7803553 C87.1947771,91.0984632 78.2989518,90.2365792 72.7487373,90.2365792 C67.2148598,90.2365792 58.3550378,91.0933968 46.1675662,92.7655248 L72.4834099,47.9137711 Z" id="Red-Pointer" stroke="#FFFFFF" stroke-width="8" fill="#E42222" transform="translate(72.7487, 71.7487) rotate(-45) translate(-72.7487, -71.7487)"></path>
                <g id="NW" transform="translate(94.3242, 140.0527)" fill="#4A4A4A">
                    <polygon id="Path" points="81.5429688 98.8769531 81.5429688 2.50244141 70.0683594 2.50244141 70.0683594 70.4345703 0 0 0 95.9472656 11.4746094 95.9472656 11.4746094 28.2592773"></polygon>
                    <polygon id="Path" points="182.800293 2.50244141 158.26416 69.4580078 142.089844 36.4379883 125.854492 69.5800781 101.257324 2.50244141 88.8061523 2.50244141 123.901367 98.5107422 141.662598 62.2558594 159.484863 98.6328125 194.580078 2.50244141"></polygon>
                </g>
                <g id="CRAFT" transform="translate(93.1426, 93.0073)" fill="#4A4A4A">
                    <path d="M23.8417969,24.1655273 C21.6518555,26.2983398 18.7573242,27.4790039 15.6723633,27.4790039 C12.4731445,27.4790039 9.42626953,26.222168 7.14111328,23.9370117 C4.83691406,21.6328125 3.58007812,18.5859375 3.58007812,15.3295898 C3.58007812,12.1303711 4.79882812,9.140625 7.04589844,6.89355469 C9.25488281,4.68457031 12.206543,3.44677734 15.3486328,3.44677734 C18.5478516,3.44677734 21.5566406,4.70361328 23.8417969,6.98876953 L23.8417969,2.38037109 C21.4233398,0.856933594 18.6240234,0.0380859375 15.6723633,0.0380859375 C11.4829102,0.0380859375 7.54101562,1.67578125 4.5703125,4.64648438 C1.61865234,7.59814453 0,11.4829102 0,15.6152344 C0,19.6904297 1.58056641,23.5371094 4.45605469,26.4125977 C7.35058594,29.3071289 11.2163086,30.8876953 15.3486328,30.8876953 C15.7866211,30.8876953 16.2436523,30.8876953 16.6816406,30.8496094 C19.2524414,30.6401367 21.6899414,29.7832031 23.8417969,28.3930664 L23.8417969,24.1655273 Z" id="Path"></path>
                    <path d="M59.9586914,15.1201172 C58.8541992,16.1865234 57.3688477,16.7578125 55.8263672,16.7578125 L48.9518555,16.7578125 L48.9518555,4.265625 L55.5216797,4.265625 C57.178418,4.265625 58.7589844,4.93212891 59.9586914,6.13183594 C61.1774414,7.35058594 61.8439453,8.95019531 61.8439453,10.6640625 C61.8439453,12.3779297 61.1774414,13.9584961 59.9586914,15.1201172 Z M64.6242187,14.2250977 C65.1574219,13.0063477 65.4240234,11.6923828 65.4240234,10.359375 C65.4240234,7.82666016 64.452832,5.44628906 62.662793,3.65625 C60.8537109,1.84716797 58.4352539,0.856933594 55.8454102,0.856933594 L45.3908203,0.856933594 L45.3908203,29.9926758 L48.9708984,29.9926758 L48.9708984,20.1665039 L52.9508789,20.1665039 L62.7770508,29.9926758 L67.9186523,29.9926758 L57.8258789,19.8999023 C59.5207031,19.5 61.0822266,18.6621094 62.3771484,17.4243164 C63.3292969,16.5102539 64.0910156,15.4248047 64.6242187,14.2250977 Z" id="Shape"></path>
                    <path d="M101.255273,7.35058594 L106.587305,17.1196289 L95.8851562,17.1196289 L101.255273,7.35058594 Z M93.9808594,20.5283203 L108.434473,20.5283203 L113.595117,29.9926758 L117.765527,29.9926758 L101.388574,0 L84.8973633,29.9926758 L88.7821289,29.9926758 L93.9808594,20.5283203 Z" id="Shape"></path>
                    <polygon id="Path" points="154.529883 4.24658203 154.529883 0.837890625 137.029395 0.837890625 137.029395 29.9926758 140.609473 29.9926758 140.609473 17.1196289 154.110938 17.1196289 154.110938 13.7109375 140.609473 13.7109375 140.609473 4.24658203"></polygon>
                    <polygon id="Path" points="193.884082 0.837890625 174.365039 0.837890625 174.365039 4.24658203 182.344043 4.24658203 182.344043 29.9926758 185.924121 29.9926758 185.924121 4.24658203 193.884082 4.24658203"></polygon>
                </g>
                <g id="Flair-Dots" transform="translate(55, 182)" fill="#4A4A4A">
                    <circle id="Right-Dot" cx="9" cy="9" r="9"></circle>
                    <circle id="Left-Dot" cx="263" cy="9" r="9"></circle>
                </g>
            </g>
        </g>
    </g>
</svg>