<?xml version="1.0" encoding="UTF-8"?>
<svg width="1024px" height="1024px" viewBox="0 0 1024 1024" version="1.1" xmlns="http://www.w3.org/2000/svg" xmlns:xlink="http://www.w3.org/1999/xlink">
    <title>Social Media Avatar</title>
    <g id="Social-Media-Avatar" stroke="none" stroke-width="1" fill="none" fill-rule="evenodd">
        <rect id="Rectangle" fill="#032A3F" x="0" y="0" width="1024" height="1024"></rect>
        <g id="Circle-Arrow-2" transform="translate(148, 173)" fill="#FE4C40">
            <g id="Circles:-Large,-Bottom" opacity="0.5" transform="translate(116, 138)">
                <ellipse id="Oval" cx="14.1" cy="43.2727273" rx="14.1" ry="12.7272727"></ellipse>
                <ellipse id="Oval" cx="70.5" cy="12.7272727" rx="14.1" ry="12.7272727"></ellipse>
                <ellipse id="Oval" cx="126.9" cy="43.2727273" rx="14.1" ry="12.7272727"></ellipse>
            </g>
            <g id="Circles:-Large,-Middle" opacity="0.75" transform="translate(58, 73)">
                <ellipse id="Oval" cx="72.9462366" cy="48.5" rx="17.8924731" ry="17.0405405"></ellipse>
                <ellipse id="Oval" cx="17.8924731" cy="79.9594595" rx="17.8924731" ry="17.0405405"></ellipse>
                <ellipse id="Oval" cx="128" cy="17.0405405" rx="17.8924731" ry="17.0405405"></ellipse>
                <ellipse id="Oval" cx="183.053763" cy="48.5" rx="17.8924731" ry="17.0405405"></ellipse>
                <ellipse id="Oval" cx="238.107527" cy="77.3378378" rx="17.8924731" ry="17.0405405"></ellipse>
            </g>
            <g id="Circles:-Large,-Top">
                <ellipse id="Oval" cx="134.470588" cy="56.1538462" rx="22.4117647" ry="22.4615385"></ellipse>
                <ellipse id="Oval" cx="78.4411765" cy="89.8461538" rx="22.4117647" ry="22.4615385"></ellipse>
                <ellipse id="Oval" cx="22.4117647" cy="123.538462" rx="22.4117647" ry="22.4615385"></ellipse>
                <ellipse id="Oval" cx="190.5" cy="22.4615385" rx="22.4117647" ry="22.4615385"></ellipse>
                <ellipse id="Oval" cx="246.529412" cy="56.1538462" rx="22.4117647" ry="22.4615385"></ellipse>
                <ellipse id="Oval" cx="302.558824" cy="89.8461538" rx="22.4117647" ry="22.4615385"></ellipse>
                <ellipse id="Oval" cx="358.588235" cy="123.538462" rx="22.4117647" ry="22.4615385"></ellipse>
            </g>
        </g>
        <g id="up" transform="translate(180, 405)" fill="#FFBF00" fill-rule="nonzero">
            <path d="M140.727546,332 C112.527398,332 87.87557,326.877821 66.7720627,316.633463 C45.6685554,306.389105 29.2640015,290.70785 17.5584009,269.5897 C5.8528003,248.47155 0,221.961463 0,190.05944 L0,2 L59.241524,2 L59.241524,183.296237 C59.241524,215.121186 66.9215165,239.052521 82.2815014,255.09024 C97.6414864,271.12796 119.34763,279.146819 147.399931,279.146819 C167.886339,279.146819 185.713114,274.970397 200.880255,266.617552 C216.047397,258.264707 227.818886,245.981111 236.194722,229.766765 C244.570558,213.552419 248.758476,193.823198 248.758476,170.579103 L248.758476,2 L308,2 L308,328.589496 L251.361863,328.589496 L251.361863,240.648586 L260.936543,263.847721 C250.143735,285.486118 234.07505,302.25443 212.730489,314.152658 C191.385927,326.050886 167.384946,332 140.727546,332 Z" id="Path"></path>
            <path d="M512.9,332.210589 C485.815062,332.210589 461.028395,326.042898 438.54,313.707515 C416.051605,301.372131 398.130864,282.861057 384.777778,258.174291 C371.424691,233.487526 364.748148,202.815459 364.748148,166.158092 C364.748148,129.084746 371.251358,98.2926854 384.257778,73.7819109 C397.264198,49.2711364 415.011605,30.8464577 437.5,18.5078746 C459.988395,6.16929154 485.121728,0 512.9,0 C544.851111,0 573.22963,6.94685266 598.035556,20.840558 C622.841481,34.7342633 642.37037,54.1092945 656.622222,78.9656517 C670.874074,103.822009 678,132.886156 678,166.158092 C678,199.359632 670.874074,228.388581 656.622222,253.244938 C642.37037,278.101295 622.841481,297.476326 598.035556,311.370031 C573.22963,325.263737 544.851111,332.210589 512.9,332.210589 Z M340,448 L340,3.39823009 L396.564444,3.39823009 L396.564444,91.080246 L393.001481,166.772461 L399.164444,242.464677 L399.164444,448 L340,448 Z M508.22,280.584371 C529.090617,280.584371 547.796173,275.895005 564.336667,266.516274 C580.87716,257.137543 594.008765,243.779811 603.731481,226.443078 C613.454198,209.106345 618.315556,189.011349 618.315556,166.158092 C618.315556,142.888856 613.454198,122.688266 603.731481,105.556322 C594.008765,88.4243788 580.87716,75.1530423 564.336667,65.7423129 C547.796173,56.3315834 529.090617,51.6262187 508.22,51.6262187 C487.349383,51.6262187 468.643827,56.3315834 452.103333,65.7423129 C435.56284,75.1530423 422.431235,88.4243788 412.708519,105.556322 C402.985802,122.688266 398.124444,142.888856 398.124444,166.158092 C398.124444,189.011349 402.985802,209.106345 412.708519,226.443078 C422.431235,243.779811 435.56284,257.137543 452.103333,266.516274 C468.643827,275.895005 487.349383,280.584371 508.22,280.584371 Z" id="Shape"></path>
        </g>
    </g>
</svg>